<svg width="109" height="87" viewBox="0 0 109 87" fill="none" xmlns="http://www.w3.org/2000/svg">
<path d="M66.8062 64.5355H32.8906V68.2828H66.8062V64.5355Z" fill="#FF5E5E"/>
<path d="M3.08594 31.6604H5.00949L17.4396 45.8672H15.516L3.08594 31.6604Z" fill="#A6A6A6"/>
<path d="M27.313 30.5334H0.582031V31.6572H27.313V30.5334Z" fill="#A6A6A6"/>
<path d="M10.3398 31.6604H12.2634L24.6935 45.8672H22.7699L10.3398 31.6604Z" fill="#A6A6A6"/>
<path d="M22.7092 57.8512C32.3674 57.8512 37.9641 64.5541 37.9641 72.443C37.9641 80.3319 32.7807 86.8827 23.3618 86.8827C12.9392 86.8827 7.96094 78.5995 7.96094 72.3716C7.96094 66.1437 12.933 57.8512 22.7092 57.8512Z" fill="#37474F"/>
<path d="M21.2204 57.8512C30.4031 57.8512 35.7201 64.5541 35.7201 72.443C35.7201 80.3319 30.7947 86.8827 21.8357 86.8827C11.9258 86.8827 7.19922 78.5871 7.19922 72.3592C7.19922 66.1313 11.9258 57.8512 21.2204 57.8512Z" fill="#263238"/>
<path d="M21.3144 63.5171C26.908 63.5171 30.1491 67.6028 30.1491 72.4088C30.1491 77.2148 27.1473 81.2043 21.6904 81.2043C15.6494 81.2043 12.7656 76.1561 12.7656 72.3591C12.7656 68.5622 15.6494 63.5171 21.3144 63.5171Z" fill="#C7C7C7"/>
<path d="M50.0488 40.164V38.8942L17.5472 39.9405V42.7968C17.5472 42.7968 8.1345 53.1818 7.18359 63.9766L39.7753 64.6659L45.0115 64.5355H51.441V58.0095C51.441 58.0095 46.5808 54.4702 47.4323 47.2395C47.715 44.8396 50.0488 40.164 50.0488 40.164Z" fill="#FF5E5E"/>
<path d="M36.7363 63.1539C36.3976 63.7748 31.4535 64.6658 22.0812 64.9173C13.6443 65.1439 7.34222 64.9577 6.85434 64.4143C6.36646 63.871 7.60947 54.2622 13.3211 49.0588C19.0327 43.8554 27.1185 43.1072 32.451 46.2118C37.1403 48.9346 40.6394 55.8548 36.7363 63.1539Z" fill="#FF5E5E"/>
<path opacity="0.1" d="M38.3305 54.0573C37.8294 51.7819 36.6737 49.7025 35.0054 48.0746C33.3331 46.4005 31.2448 45.2015 28.9551 44.6005C26.401 43.9636 23.726 43.9925 21.1862 44.6844C19.9152 45.0174 18.6861 45.4934 17.5225 46.1032C16.2939 46.7628 15.136 47.5461 14.0669 48.441C13.781 48.6769 13.492 48.9129 13.2092 49.1551C13.1844 49.1737 13.2092 49.2078 13.2465 49.1892C14.3222 48.2442 15.4867 47.4051 16.7238 46.6838C17.8527 46.0396 19.0504 45.5241 20.2944 45.147C22.7607 44.3763 25.3799 44.2291 27.9171 44.7185C30.2103 45.1789 32.3356 46.2519 34.0669 47.8232C35.7352 49.3237 36.9622 51.2505 37.6157 53.396C38.3926 56.0101 38.1378 58.8881 37.364 61.4681C37.2615 61.8158 37.1496 62.1573 37.0346 62.4988C37.0346 62.5361 37.0781 62.5485 37.0906 62.5143C38.1347 59.835 38.9147 56.9477 38.3305 54.0573Z" fill="black"/>
<path d="M15.7365 65.9077C10.0777 65.9077 7.08208 65.7338 5.5625 65.1315L6.26791 63.3588C8.04541 64.0635 13.611 64.0511 22.5669 63.9487C29.1828 63.871 34.0647 63.247 37.1101 62.0859L37.7906 63.8679C34.4967 65.1098 29.5246 65.768 22.5886 65.8487C19.9566 65.886 17.6881 65.9077 15.7365 65.9077Z" fill="#DBDBDB"/>
<path d="M50.5838 39.7293C50.5838 39.7293 50.8013 32.6259 50.5838 32.3465C50.3662 32.067 17.4638 31.4741 16.4787 31.561C15.4936 31.6479 15.3942 39.9435 15.4687 40.3316C15.5433 40.7197 49.7261 39.8038 50.5838 39.7293Z" fill="#37474F"/>
<path d="M53.6631 32.4894C53.5667 32.3776 49.3964 32.2596 49.1665 32.2534C48.9365 32.2472 48.8557 39.8194 48.98 39.8132C49.1043 39.807 53.5108 39.8691 53.6569 39.7077C53.8029 39.5462 53.8713 32.7315 53.6631 32.4894Z" fill="#455A64"/>
<path d="M30.6192 31.5673C30.5013 31.69 30.4243 31.8462 30.3986 32.0143C30.3596 32.1915 30.3315 32.3708 30.3147 32.5514C30.2743 32.9116 30.2525 33.2779 30.2339 33.6412C30.2028 34.3739 30.1842 35.1097 30.1717 35.8486C30.1593 36.5875 30.1407 37.3202 30.1717 38.0498C30.1745 38.4111 30.1994 38.7719 30.2463 39.1302C30.265 39.3033 30.3057 39.4734 30.3675 39.6362C30.3902 39.7093 30.4304 39.7757 30.4845 39.8298C30.5387 39.8839 30.6052 39.924 30.6783 39.9467C30.5963 39.9443 30.5167 39.9185 30.4489 39.8722C30.3812 39.826 30.3281 39.7613 30.296 39.6859C30.2091 39.5235 30.1413 39.3516 30.094 39.1736C30.0061 38.8096 29.9489 38.4389 29.9231 38.0653C29.8658 37.3216 29.8471 36.5755 29.8672 35.8299C29.8858 35.0879 29.9169 34.3428 30.0008 33.6008C30.0412 33.2296 30.1003 32.8608 30.178 32.4956C30.2213 32.3149 30.2742 32.1366 30.3364 31.9616C30.3862 31.8094 30.4732 31.62 30.6192 31.5673Z" fill="#455A64"/>
<path d="M93.6451 57.7332C103.306 57.7332 108.9 64.4361 108.9 72.325C108.9 80.2139 103.717 86.7554 94.2946 86.7554C83.8689 86.7554 78.8906 78.4722 78.8906 72.2474C78.8906 66.0226 83.8689 57.7332 93.6451 57.7332Z" fill="#37474F"/>
<path d="M92.161 57.7332C101.344 57.7332 106.664 64.4361 106.664 72.325C106.664 80.2139 101.735 86.7554 92.7794 86.7554C82.8695 86.7554 78.1367 78.4722 78.1367 72.2474C78.1367 66.0226 82.8695 57.7332 92.161 57.7332Z" fill="#263238"/>
<path d="M92.2527 63.3991C97.8463 63.3991 101.091 67.4849 101.091 72.2908C101.091 77.0968 98.0887 81.0863 92.6287 81.0863C86.5908 81.0863 83.707 76.0381 83.707 72.2443C83.707 68.4504 86.5908 63.3991 92.2527 63.3991Z" fill="#C7C7C7"/>
<path d="M78.0179 24.7774H74.2174L71.6133 20.9586H76.0664L78.0179 24.7774Z" fill="#FF5E5E"/>
<path d="M71.6133 20.9586L73.1391 23.194L74.2174 24.7774H78.0179L76.9893 22.7655L76.0633 20.9586H71.6133Z" fill="#FF5E5E"/>
<path opacity="0.1" d="M71.6133 20.9586L73.1391 23.194L76.9893 22.7655L76.0633 20.9586H71.6133Z" fill="black"/>
<path d="M87.2546 53.2749L83.5536 54.1256L80.1602 50.9837L84.4983 49.9902L87.2546 53.2749Z" fill="#FF5E5E"/>
<path d="M80.1602 50.9837L82.1459 52.8248L83.5505 54.1256L87.2577 53.2749L85.8034 51.5457L84.4983 49.9902L80.1602 50.9837Z" fill="#FF5E5E"/>
<path opacity="0.1" d="M80.1602 50.9837L82.1459 52.8248L85.8034 51.5457L84.4983 49.9902L80.1602 50.9837Z" fill="black"/>
<path d="M108.062 59.5959L104.466 61.4835C104.466 61.4835 94.0528 59.5959 87.3747 61.024C80.6967 62.4522 78.8943 66.0163 78.8943 66.0163H75.5195C75.5195 66.0163 78.4157 55.7368 83.3287 52.0051C88.2417 48.2733 96.138 49.1084 100.504 51.4586C104.87 53.8089 108.062 59.5959 108.062 59.5959Z" fill="#FF5E5E"/>
<path opacity="0.1" d="M104.088 60.7726C103.392 60.0461 102.637 59.3774 101.832 58.7732C101.034 58.1537 100.191 57.5954 99.3089 57.1029C97.599 56.1537 95.7239 55.5384 93.7837 55.2898C89.9863 54.8241 86.0149 55.9294 83.2181 58.8446C81.6457 60.4963 80.527 62.5236 79.4642 64.5696C79.4487 64.6006 79.4922 64.6255 79.5077 64.5944C80.4082 62.7955 81.5452 61.1249 82.8887 59.627C84.1833 58.2148 85.7946 57.1296 87.5904 56.4603C91.1734 55.147 95.0485 55.65 98.4916 57.2364C99.4775 57.6829 100.429 58.2017 101.338 58.7888C102.268 59.4143 103.165 60.0868 104.026 60.8037C104.032 60.8087 104.039 60.8119 104.046 60.8129C104.054 60.814 104.061 60.8127 104.068 60.8094C104.075 60.806 104.08 60.8007 104.084 60.7941C104.087 60.7876 104.089 60.7801 104.088 60.7726Z" fill="black"/>
<path d="M64.5754 22.7221C64.5194 22.8525 57.0148 24.231 57.0148 24.231C57.0148 24.231 55.7718 23.3927 56.5393 22.3309L64.0689 20.7072C64.3583 20.9444 64.5638 21.2683 64.655 21.6311C64.7462 21.9939 64.7183 22.3764 64.5754 22.7221Z" fill="#263238"/>
<path d="M80.3272 13.0294V21.9242C80.3272 21.9242 75.5199 21.5051 74.2396 21.4616C72.9593 21.4182 67.2694 22.154 67.2694 22.154L66.8281 20.1608C66.8281 20.1608 71.2159 18.6302 73.0805 17.4349C74.945 16.2396 77.0923 13.9546 78.2452 13.4486C78.8977 13.1506 79.6102 13.0072 80.3272 13.0294Z" fill="#FF5E5E"/>
<path d="M67.2878 19.9094C67.5737 20.203 67.7892 20.5575 67.9184 20.9462C68.0476 21.335 68.087 21.7479 68.0336 22.154C68.0336 22.154 64.4507 22.8091 64.4072 22.8091C64.4369 22.3879 64.3347 21.968 64.1148 21.6075C63.8948 21.247 63.568 20.9638 63.1797 20.7973L67.2878 19.9094Z" fill="#DBDBDB"/>
<path d="M80.375 21.9242C81.6759 21.9242 82.7305 19.9337 82.7305 17.4783C82.7305 15.023 81.6759 13.0325 80.375 13.0325C79.0741 13.0325 78.0195 15.023 78.0195 17.4783C78.0195 19.9337 79.0741 21.9242 80.375 21.9242Z" fill="#DBDBDB"/>
<path d="M80.5207 21.4462C81.6345 21.4462 82.5375 19.6698 82.5375 17.4784C82.5375 15.2871 81.6345 13.5107 80.5207 13.5107C79.4068 13.5107 78.5039 15.2871 78.5039 17.4784C78.5039 19.6698 79.4068 21.4462 80.5207 21.4462Z" fill="white"/>
<path d="M81.1328 24.7898C81.9159 25.9354 85.0514 41.5145 85.6666 42.2969C86.2819 43.0793 87.4597 43.1352 87.4597 43.1352L89.5324 48.2827C89.5324 48.2827 84.3832 49.9064 81.5243 52.2535C77.8295 55.2867 74.4143 65.3427 74.4143 65.3427C73.8549 65.7338 66.9127 68.587 65.0078 68.6988C65.0078 68.6988 73.8612 58.9875 74.5821 45.5475C74.8618 40.341 71.6548 33.0078 71.4466 29.3754C71.2166 25.4759 72.3975 24.7898 74.4702 24.7898H81.1328Z" fill="#FF5E5E"/>
<path d="M64.5813 69.8071L63.1953 68.497C70.9641 60.2821 73.8293 47.3388 73.6024 43.8057C73.4843 41.9957 72.9032 39.9715 72.2848 37.8262C71.626 35.5381 70.8802 32.9457 70.5633 30.1298C70.268 27.5157 70.5633 25.8268 71.4551 24.8177C72.347 23.8087 73.5713 23.8118 74.3855 23.8149H81.7814V25.7212H74.3824C73.6708 25.7212 73.186 25.746 72.8784 26.0907C72.5707 26.4353 72.1698 27.3325 72.462 29.9187C72.7727 32.5731 73.4533 34.9761 74.1214 37.2984C74.7677 39.5462 75.3644 41.6666 75.5073 43.6816C75.7497 47.4537 72.7696 61.1855 64.5813 69.8071Z" fill="#DBDBDB"/>
<path d="M85.7052 46.5471C86.1402 48.1491 87.5106 49.1674 88.7661 48.8259C90.0215 48.4844 90.6896 46.9103 90.2515 45.3115C89.8133 43.7126 88.4429 42.688 87.1875 43.0295C85.932 43.371 85.267 44.9482 85.7052 46.5471Z" fill="#DBDBDB"/>
<path d="M86.1699 46.4198C86.5584 47.848 87.7455 48.7669 88.8207 48.4751C89.8959 48.1833 90.449 46.7893 90.0637 45.3704C89.6783 43.9516 88.4882 43.0233 87.4161 43.3152C86.344 43.607 85.7815 44.9917 86.1699 46.4198Z" fill="white"/>
<path opacity="0.1" d="M80.2064 46.2894C79.8615 44.6781 79.4886 43.073 79.1654 41.4586C78.8422 39.8442 78.5439 38.2267 78.2922 36.6029C78.0467 35.091 77.7825 33.5635 77.6862 32.0329C77.5899 30.434 77.6862 28.8196 78.4631 27.3759C78.4647 27.3731 78.4658 27.3699 78.4662 27.3667C78.4666 27.3634 78.4664 27.3601 78.4655 27.3569C78.4646 27.3538 78.4632 27.3508 78.4611 27.3482C78.4591 27.3456 78.4566 27.3434 78.4538 27.3418C78.4509 27.3402 78.4478 27.3391 78.4445 27.3387C78.4412 27.3383 78.4379 27.3385 78.4347 27.3394C78.4316 27.3402 78.4286 27.3417 78.426 27.3437C78.4234 27.3458 78.4212 27.3483 78.4196 27.3511C77.6209 28.5154 77.3599 29.9156 77.3164 31.3033C77.3205 32.8333 77.4556 34.3602 77.7204 35.8671C78.1738 39.1763 78.7961 42.4601 79.5849 45.7058C80.0355 47.5406 80.6166 49.3444 81.2381 51.1265C81.2381 51.1322 81.2404 51.1377 81.2445 51.1418C81.2486 51.1459 81.2541 51.1482 81.2599 51.1482C81.2656 51.1482 81.2712 51.1459 81.2752 51.1418C81.2793 51.1377 81.2816 51.1322 81.2816 51.1265C80.9108 49.5058 80.5524 47.8935 80.2064 46.2894Z" fill="black"/>
<path opacity="0.1" d="M51.4395 58.0095V64.5293H45.8708V59.5929C45.8708 59.5929 42.7633 58.025 42.1418 52.3218C41.5824 47.1557 45.7092 40.2603 46.4923 39.0091L50.038 38.8942V40.164C50.038 40.164 47.7042 44.8396 47.4215 47.2395C46.5793 54.4702 51.4395 58.0095 51.4395 58.0095Z" fill="black"/>
</svg>
