<svg width="109" height="48" viewBox="0 0 109 48" fill="none" xmlns="http://www.w3.org/2000/svg">
<path d="M86.4634 12.689H88.1337C88.5496 12.689 88.8867 12.3938 88.8867 12.0296V9.33736C88.8867 8.97322 88.5496 8.67803 88.1337 8.67803H86.4634C86.0475 8.67803 85.7104 8.97322 85.7104 9.33736V12.0296C85.7104 12.3938 86.0475 12.689 86.4634 12.689Z" fill="#263238"/>
<path opacity="0.4" d="M86.4634 12.689H88.1337C88.5496 12.689 88.8867 12.3938 88.8867 12.0296V9.33736C88.8867 8.97322 88.5496 8.67803 88.1337 8.67803H86.4634C86.0475 8.67803 85.7104 8.97322 85.7104 9.33736V12.0296C85.7104 12.3938 86.0475 12.689 86.4634 12.689Z" fill="white"/>
<path d="M85.8255 10.478C85.5921 10.6891 85.3167 10.8611 85.0127 10.9856C84.9265 11.0141 84.8513 11.0633 84.7957 11.1277C84.7402 11.1921 84.7066 11.2689 84.699 11.3493L84.6183 12.3357C84.6138 12.3938 84.623 12.4522 84.6452 12.5071C84.6675 12.5621 84.7024 12.6124 84.7478 12.6551C84.7931 12.6977 84.848 12.7318 84.909 12.7552C84.97 12.7785 85.0358 12.7907 85.1024 12.7909H85.8434C85.9214 12.7912 85.9982 12.775 86.0675 12.7438L86.8385 12.3932C86.9173 12.3575 86.9832 12.3035 87.0291 12.237C87.075 12.1705 87.099 12.0942 87.0984 12.0165V10.7789C87.0984 10.6665 87.0474 10.5587 86.9566 10.4792C86.8659 10.3997 86.7427 10.3551 86.6144 10.3551H86.1661C86.0386 10.3554 85.9163 10.3996 85.8255 10.478Z" fill="#263238"/>
<path opacity="0.3" d="M85.8255 10.478C85.5921 10.6891 85.3167 10.8611 85.0127 10.9856C84.9265 11.0141 84.8513 11.0633 84.7957 11.1277C84.7402 11.1921 84.7066 11.2689 84.699 11.3493L84.6183 12.3357C84.6138 12.3938 84.623 12.4522 84.6452 12.5071C84.6675 12.5621 84.7024 12.6124 84.7478 12.6551C84.7931 12.6977 84.848 12.7318 84.909 12.7552C84.97 12.7785 85.0358 12.7907 85.1024 12.7909H85.8434C85.9214 12.7912 85.9982 12.775 86.0675 12.7438L86.8385 12.3932C86.9173 12.3575 86.9832 12.3035 87.0291 12.237C87.075 12.1705 87.099 12.0942 87.0984 12.0165V10.7789C87.0984 10.6665 87.0474 10.5587 86.9566 10.4792C86.8659 10.3997 86.7427 10.3551 86.6144 10.3551H86.1661C86.0386 10.3554 85.9163 10.3996 85.8255 10.478Z" fill="white"/>
<path d="M26.2954 17.906C26.2135 17.9068 26.132 17.8971 26.0533 17.8773C25.9399 17.8495 25.8338 17.8024 25.7412 17.7387C25.6486 17.675 25.5712 17.5959 25.5134 17.506C25.4557 17.4161 25.4188 17.3171 25.4048 17.2147C25.3908 17.1123 25.4 17.0085 25.4318 16.9092L29.9319 2.87745C30.1145 2.31189 30.5026 1.81386 31.0375 1.45882C31.5724 1.10378 32.2249 0.911077 32.8961 0.909912H48.7779C49.0156 0.909912 49.2437 0.992608 49.4118 1.13981C49.5799 1.28701 49.6743 1.48666 49.6743 1.69483C49.6743 1.90301 49.5799 2.10265 49.4118 2.24985C49.2437 2.39706 49.0156 2.47975 48.7779 2.47975H32.8961C32.6156 2.4805 32.3431 2.56103 32.1194 2.70921C31.8957 2.85738 31.7331 3.06518 31.656 3.3013L27.1559 17.333C27.1033 17.4976 26.9907 17.6425 26.8354 17.7459C26.6801 17.8493 26.4905 17.9056 26.2954 17.906Z" fill="#263238"/>
<path d="M14.056 17.2388C13.8823 17.2401 13.712 17.1971 13.5657 17.1151C13.4194 17.0332 13.3034 16.9158 13.2319 16.7772C13.1604 16.6387 13.1364 16.4849 13.1628 16.3346C13.1892 16.1843 13.2649 16.044 13.3806 15.9306L23.4894 5.77378C23.8333 5.42862 24.2577 5.15197 24.7339 4.96242C25.2102 4.77287 25.7273 4.67483 26.2504 4.6749H30.0274C30.2651 4.6749 30.4932 4.75759 30.6613 4.90479C30.8294 5.05199 30.9238 5.25165 30.9238 5.45982C30.9238 5.66799 30.8294 5.86764 30.6613 6.01484C30.4932 6.16204 30.2651 6.24474 30.0274 6.24474H26.2564C25.9897 6.24434 25.726 6.29413 25.4832 6.39073C25.2404 6.48733 25.0241 6.62849 24.849 6.80464L14.7372 16.9615C14.6534 17.0481 14.549 17.1178 14.4314 17.1657C14.3138 17.2136 14.1857 17.2385 14.056 17.2388Z" fill="#263238"/>
<path d="M92.3923 29.4338H96.0378C100.087 29.4338 103.368 33.4055 103.368 38.3034C103.368 43.2013 100.081 47.1756 96.0378 47.1756H92.3923C88.3434 47.1756 85.0625 43.204 85.0625 38.3034C85.0625 33.4029 88.3434 29.4338 92.3923 29.4338Z" fill="black"/>
<path d="M41.5915 29.4338H45.237C49.2859 29.4338 52.5669 33.4055 52.5669 38.3034C52.5669 43.2013 49.2799 47.1756 45.237 47.1756H41.5915C37.5427 47.1756 34.2617 43.204 34.2617 38.3034C34.2617 33.4029 37.5427 29.4338 41.5915 29.4338Z" fill="black"/>
<path d="M3.77734 34.3213H7.52443L11.1699 38.2014H28.1065C28.4913 38.7544 29.0353 39.2091 29.6841 39.52C30.3328 39.8309 31.0635 39.987 31.8028 39.9727C34.4383 39.9727 35.018 38.4395 35.018 38.4395H44.8429L46.0382 39.9727H63.5275L66.2348 38.3034H80.8048C80.8048 38.3034 81.5608 39.9727 84.259 39.9727C85.0235 39.9828 85.7789 39.8262 86.457 39.517C87.1352 39.2078 87.7148 38.7557 88.1436 38.2014H92.1835C93.0742 38.2035 93.9451 37.9717 94.6838 37.5361C95.4226 37.1005 95.9953 36.4811 96.328 35.7577L100.891 25.8311H3.77734V34.3213Z" fill="#263238"/>
<path d="M63.9587 29.4338H67.6042C71.6531 29.4338 74.9341 33.4055 74.9341 38.3034C74.9341 43.2013 71.6471 47.1756 67.6042 47.1756H63.9587C59.9099 47.1756 56.6289 43.204 56.6289 38.3034C56.6289 33.4029 59.9099 29.4338 63.9587 29.4338Z" fill="black"/>
<path opacity="0.2" d="M62.8101 30.0618C66.1927 30.0618 68.9358 33.7535 68.9358 38.3034C68.9358 42.8533 66.1927 46.5451 62.8101 46.5451C59.4276 46.5451 56.6875 42.856 56.6875 38.3034C56.6875 33.7509 59.4246 30.0618 62.8101 30.0618Z" fill="white"/>
<path opacity="0.2" d="M62.2835 33.8504C64.1122 33.8504 65.5943 35.8441 65.5943 38.2983C65.5943 40.7525 64.1002 42.7462 62.2835 42.7462C60.4667 42.7462 58.9727 40.7525 58.9727 38.2983C58.9727 35.8441 60.4548 33.8504 62.2835 33.8504Z" fill="white"/>
<path opacity="0.7" d="M63.5304 36.0769C64.4448 36.0769 65.1858 37.0738 65.1858 38.3035C65.1858 39.5332 64.4448 40.5327 63.5304 40.5327C62.6161 40.5327 61.875 39.5332 61.875 38.3035C61.875 37.0738 62.6161 36.0769 63.5304 36.0769Z" fill="white"/>
<path d="M13.158 29.4338H16.8034C20.8523 29.4338 24.1333 33.4055 24.1333 38.3034C24.1333 43.2013 20.8464 47.1756 16.8034 47.1756H13.158C9.10907 47.1756 5.82812 43.204 5.82812 38.3034C5.82812 33.4029 9.10907 29.4338 13.158 29.4338Z" fill="black"/>
<path opacity="0.2" d="M12.0094 30.0618C15.3919 30.0618 18.135 33.7535 18.135 38.3034C18.135 42.8533 15.3919 46.5451 12.0094 46.5451C8.62681 46.5451 5.88672 42.856 5.88672 38.3034C5.88672 33.7509 8.62681 30.0618 12.0094 30.0618Z" fill="white"/>
<path opacity="0.2" d="M11.4827 33.8504C13.3114 33.8504 14.7935 35.8441 14.7935 38.2983C14.7935 40.7525 13.2995 42.7462 11.4827 42.7462C9.66593 42.7462 8.17188 40.7525 8.17188 38.2983C8.17188 35.8441 9.65398 33.8504 11.4827 33.8504Z" fill="white"/>
<path opacity="0.7" d="M12.7457 36.0769C13.6182 36.0769 14.3234 37.0293 14.3234 38.2014C14.3234 39.3736 13.6182 40.326 12.7457 40.326C11.8732 40.326 11.168 39.3736 11.168 38.2014C11.168 37.0293 11.8732 36.0769 12.7457 36.0769Z" fill="white"/>
<path d="M106.435 19.5622V35.7839H73.043L70.7033 30.0017C70.4177 29.2931 69.8881 28.6796 69.1875 28.2457C68.487 27.8118 67.65 27.5788 66.7919 27.5789H61.7121C60.8037 27.5827 59.9219 27.8474 59.2018 28.3323C58.4818 28.8172 57.9633 29.4956 57.7259 30.2633L55.9809 35.7996H21.8268L19.777 30.1325C19.511 29.3963 18.9841 28.7535 18.2727 28.2972C17.5614 27.8408 16.7025 27.5947 15.8207 27.5946H10.9142C9.90339 27.5954 8.92738 27.9181 8.16816 28.5025C7.54366 28.9883 7.09845 29.6258 6.88925 30.334L5.31153 35.7918H1.96485V15.0882C1.96445 14.9304 1.99966 14.7741 2.06845 14.6282C2.13723 14.4824 2.23825 14.3498 2.36569 14.2382C2.49312 14.1267 2.64448 14.0382 2.81106 13.978C2.97764 13.9178 3.15617 13.8869 3.33639 13.8873H30.3758C30.3758 13.8873 31.4186 7.94804 33.8211 2.71262C33.9304 2.47343 34.1045 2.26107 34.3283 2.0938C34.5521 1.92654 34.819 1.80938 35.106 1.75241C36.6209 1.45675 40.3441 0.993652 48.7825 0.993652C71.8208 0.993652 76.5391 2.23906 76.5391 2.23906C83.2862 6.46978 89.4716 13.2122 89.4716 13.2122C90.0214 13.3012 90.5543 13.3936 91.0702 13.4896C94.0437 14.0042 96.9715 14.7036 99.8314 15.5827C101.667 16.1389 103.436 16.8495 105.114 17.7046L105.273 17.7883L105.326 17.8171C105.665 18.0023 105.944 18.2595 106.137 18.5647C106.331 18.8698 106.434 19.213 106.435 19.5622Z" fill="#FF5E5E"/>
<path d="M108.542 27.0007V35.7264C108.541 36.1874 108.331 36.6293 107.959 36.955C107.586 37.2807 107.081 37.4637 106.555 37.4637H75.1378C74.0412 37.4637 73.3599 36.6788 73.0461 35.7918L70.7035 30.0017C70.384 29.2085 69.7598 28.5371 68.9375 28.1022C68.9375 27.1446 73.7573 25.253 74.854 25.253H82.877L84.129 27.6365C84.3028 27.9651 84.5802 28.2434 84.9285 28.4385C85.2769 28.6337 85.6817 28.7376 86.0952 28.738H99.8405C100.331 28.7365 100.803 28.5747 101.165 28.2843C101.526 27.994 101.751 27.5959 101.795 27.1682L101.98 25.2556H106.549C106.811 25.2549 107.07 25.2995 107.312 25.387C107.555 25.4745 107.775 25.603 107.96 25.7652C108.145 25.9274 108.292 26.12 108.392 26.3321C108.492 26.5441 108.543 26.7713 108.542 27.0007Z" fill="#263238"/>
<path d="M87.9396 13.3535H85.0083L79.1247 12.6889H68.9352L65.6483 13.3535H56.9798C56.9798 13.3535 55.6471 6.46709 53.3164 2.32533C53.3164 2.32533 66.7629 1.93026 76.4294 3.12595C76.4294 3.12595 81.2821 5.73973 87.9396 13.3535Z" fill="#263238"/>
<path d="M54.1952 13.3536H40.5216C40.3241 13.3539 40.1288 13.318 39.9481 13.2481C39.7675 13.1783 39.6056 13.0761 39.4728 12.9481L38.5076 12.0166C38.376 11.8888 38.2151 11.7866 38.0355 11.7167C37.8558 11.6468 37.6614 11.6109 37.4648 11.6111H32.0234C32.881 7.2103 34.2167 4.7064 34.8084 3.12872C34.8919 2.90215 35.0498 2.70216 35.2624 2.55372C35.4749 2.40528 35.7327 2.31497 36.0036 2.29409C36.7805 2.24438 37.5634 2.20251 38.3343 2.17112L39.2965 2.13449C45.6821 1.92517 51.4611 2.26531 51.4611 2.26531C52.2499 3.49763 53.1404 7.66817 53.6842 10.5305C54.001 12.1553 54.1952 13.3536 54.1952 13.3536Z" fill="#263238"/>
<path opacity="0.2" d="M108.542 27.0007V35.7264C108.541 36.1874 108.331 36.6293 107.959 36.955C107.586 37.2807 107.081 37.4637 106.555 37.4637H75.1378C74.0412 37.4637 73.3599 36.6788 73.0461 35.7918L70.7035 30.0017C70.384 29.2085 69.7598 28.5371 68.9375 28.1022C68.9375 27.1446 73.7573 25.253 74.854 25.253H82.877L84.129 27.6365C84.3028 27.9651 84.5802 28.2434 84.9285 28.4385C85.2769 28.6337 85.6817 28.7376 86.0952 28.738H99.8405C100.331 28.7365 100.803 28.5747 101.165 28.2843C101.526 27.994 101.751 27.5959 101.795 27.1682L101.98 25.2556H106.549C106.811 25.2549 107.07 25.2995 107.312 25.387C107.555 25.4745 107.775 25.603 107.96 25.7652C108.145 25.9274 108.292 26.12 108.392 26.3321C108.492 26.5441 108.543 26.7713 108.542 27.0007Z" fill="white"/>
<path d="M75.9072 25.491L73.5168 25.5093C73.3429 25.5093 73.1762 25.449 73.053 25.3416C72.9298 25.2343 72.8602 25.0885 72.8594 24.9363V20.6821C72.8602 20.438 72.9712 20.2042 73.1683 20.0316C73.3654 19.859 73.6325 19.7618 73.9112 19.7611H76.46C76.1813 19.7618 75.9142 19.859 75.7172 20.0316C75.5201 20.2042 75.409 20.438 75.4082 20.6821V24.9363C75.4092 25.0642 75.4588 25.1881 75.5492 25.2885C75.6395 25.389 75.7655 25.4602 75.9072 25.491Z" fill="#FF5E5E"/>
<path d="M75.4141 24.9337V20.6821C75.4141 20.4378 75.5249 20.2035 75.7221 20.0308C75.9194 19.8581 76.1869 19.7611 76.4659 19.7611H79.3404C79.544 19.7612 79.7431 19.8129 79.9138 19.91C80.0846 20.007 80.2196 20.1452 80.3026 20.3079L82.6064 24.795C82.6433 24.8671 82.659 24.9461 82.6521 25.0249C82.6452 25.1036 82.6159 25.1796 82.5669 25.2459C82.5179 25.3122 82.4508 25.3667 82.3716 25.4045C82.2923 25.4423 82.2036 25.4621 82.1134 25.4622L76.0714 25.5093C75.9851 25.5093 75.8996 25.4944 75.8199 25.4655C75.7401 25.4366 75.6676 25.3942 75.6066 25.3407C75.5456 25.2873 75.4971 25.2238 75.4641 25.154C75.4311 25.0841 75.4141 25.0093 75.4141 24.9337Z" fill="#FF5E5E"/>
<path d="M105.581 19.7611H103.26C103.055 19.761 102.859 19.8278 102.708 19.9483C102.557 20.0688 102.463 20.2344 102.444 20.4126L101.978 24.9049C101.973 24.9751 101.984 25.0456 102.01 25.112C102.037 25.1784 102.078 25.2395 102.132 25.2915C102.186 25.3435 102.252 25.3855 102.325 25.4148C102.398 25.4441 102.477 25.4603 102.558 25.4622H106.287V20.6768C106.287 20.5366 106.25 20.3984 106.178 20.273C106.107 20.1476 106.003 20.0386 105.874 19.9547L105.581 19.7611Z" fill="#FF5E5E"/>
<path opacity="0.7" d="M75.4141 24.9337V20.6821C75.4141 20.4378 75.5249 20.2035 75.7221 20.0308C75.9194 19.8581 76.1869 19.7611 76.4659 19.7611H79.3404C79.544 19.7612 79.7431 19.8129 79.9138 19.91C80.0846 20.007 80.2196 20.1452 80.3026 20.3079L82.6064 24.795C82.6433 24.8671 82.659 24.9461 82.6521 25.0249C82.6452 25.1036 82.6159 25.1796 82.5669 25.2459C82.5179 25.3122 82.4508 25.3667 82.3716 25.4045C82.2923 25.4423 82.2036 25.4621 82.1134 25.4622L76.0714 25.5093C75.9851 25.5093 75.8996 25.4944 75.8199 25.4655C75.7401 25.4366 75.6676 25.3942 75.6066 25.3407C75.5456 25.2873 75.4971 25.2238 75.4641 25.154C75.4311 25.0841 75.4141 25.0093 75.4141 24.9337Z" fill="white"/>
<path opacity="0.7" d="M105.581 19.7611H103.26C103.055 19.761 102.859 19.8278 102.708 19.9483C102.557 20.0688 102.463 20.2344 102.444 20.4126L101.978 24.9049C101.973 24.9751 101.984 25.0456 102.01 25.112C102.037 25.1784 102.078 25.2395 102.132 25.2915C102.186 25.3435 102.252 25.3855 102.325 25.4148C102.398 25.4441 102.477 25.4603 102.558 25.4622H106.287V20.6768C106.287 20.5366 106.25 20.3984 106.178 20.273C106.107 20.1476 106.003 20.0386 105.874 19.9547L105.581 19.7611Z" fill="white"/>
<path d="M81.0928 23.2932C81.0928 24.1462 80.4564 24.8369 79.6675 24.8369C78.8787 24.8369 78.2422 24.1462 78.2422 23.2932C78.2422 22.4403 78.8787 21.7522 79.6675 21.7522C80.4564 21.7522 81.0928 22.4429 81.0928 23.2932Z" fill="white"/>
<path d="M77.2137 22.3434C77.6791 22.3434 78.0564 21.9463 78.0564 21.4564C78.0564 20.9666 77.6791 20.5695 77.2137 20.5695C76.7484 20.5695 76.3711 20.9666 76.3711 21.4564C76.3711 21.9463 76.7484 22.3434 77.2137 22.3434Z" fill="white"/>
<path d="M103.835 24.8368C104.623 24.8368 105.261 24.1457 105.261 23.2932C105.261 22.4406 104.623 21.7495 103.835 21.7495C103.048 21.7495 102.41 22.4406 102.41 23.2932C102.41 24.1457 103.048 24.8368 103.835 24.8368Z" fill="white"/>
<path d="M106.205 21.4564C106.175 21.5968 106.101 21.7269 105.99 21.8315C105.879 21.936 105.736 22.0107 105.579 22.0469C105.421 22.083 105.255 22.079 105.099 22.0354C104.944 21.9918 104.806 21.9103 104.702 21.8006C104.598 21.6909 104.532 21.5574 104.511 21.4159C104.49 21.2743 104.516 21.1305 104.585 21.0013C104.654 20.8721 104.764 20.7629 104.902 20.6864C105.04 20.6099 105.199 20.5694 105.362 20.5695C105.608 20.5901 105.834 20.6948 105.992 20.861C106.15 21.0271 106.227 21.2412 106.205 21.4564Z" fill="white"/>
<path opacity="0.2" d="M75.9072 25.491L73.5168 25.5093C73.3429 25.5093 73.1762 25.449 73.053 25.3416C72.9298 25.2343 72.8602 25.0885 72.8594 24.9363V20.6821C72.8602 20.438 72.9712 20.2042 73.1683 20.0316C73.3654 19.859 73.6325 19.7618 73.9112 19.7611H76.46C76.1813 19.7618 75.9142 19.859 75.7172 20.0316C75.5201 20.2042 75.409 20.438 75.4082 20.6821V24.9363C75.4098 25.0641 75.4595 25.1878 75.5498 25.2881C75.6401 25.3884 75.7658 25.4598 75.9072 25.491Z" fill="white"/>
<path d="M107.141 20.6768V25.4596H106.289V20.6768C106.289 20.5368 106.251 20.3988 106.18 20.2736C106.108 20.1483 106.004 20.0392 105.877 19.9547L105.578 19.7611H106.43L106.729 19.9547C106.857 20.0388 106.96 20.1478 107.032 20.2731C107.104 20.3985 107.141 20.5367 107.141 20.6768Z" fill="#FF5E5E"/>
<path opacity="0.2" d="M107.141 20.6768V25.4596H106.289V20.6768C106.289 20.5368 106.251 20.3988 106.18 20.2736C106.108 20.1483 106.004 20.0392 105.877 19.9547L105.578 19.7611H106.43L106.729 19.9547C106.857 20.0383 106.961 20.1473 107.033 20.2727C107.105 20.3982 107.142 20.5366 107.141 20.6768Z" fill="white"/>
<path opacity="0.4" d="M73.908 19.7611H76.4568C76.1781 19.7618 75.911 19.859 75.7139 20.0316C75.5169 20.2042 75.4058 20.438 75.405 20.6821V22.6103H72.8711V20.6821C72.8718 20.4403 72.9808 20.2083 73.1747 20.0361C73.3686 19.8639 73.6319 19.7652 73.908 19.7611Z" fill="black"/>
<path opacity="0.4" d="M107.141 20.6768V22.6103H106.289V20.6768C106.289 20.5368 106.251 20.3988 106.18 20.2736C106.108 20.1483 106.004 20.0392 105.877 19.9547L105.578 19.7611H106.43L106.729 19.9547C106.857 20.0383 106.961 20.1473 107.033 20.2727C107.105 20.3982 107.142 20.5366 107.141 20.6768Z" fill="black"/>
<path opacity="0.4" d="M101.334 20.1693L100.662 27.0896C100.644 27.2703 100.549 27.4385 100.397 27.5611C100.244 27.6836 100.044 27.7516 99.8371 27.7516H86.0918C85.8955 27.752 85.7031 27.7029 85.5377 27.6101C85.3724 27.5173 85.2411 27.3847 85.1596 27.2283L81.4005 20.0803C81.3861 20.0549 81.377 20.0274 81.3736 19.9992C81.3681 19.9621 81.3717 19.9244 81.3842 19.8886C81.3967 19.8528 81.4178 19.8198 81.4461 19.7918C81.4744 19.7637 81.5093 19.7414 81.5484 19.7262C81.5874 19.7109 81.6297 19.7032 81.6724 19.7035H100.841C100.909 19.703 100.977 19.7149 101.04 19.7385C101.103 19.7622 101.159 19.7971 101.205 19.8409C101.252 19.8848 101.287 19.9366 101.309 19.9932C101.332 20.0497 101.34 20.1097 101.334 20.1693Z" fill="black"/>
<path d="M100.603 20.4649L99.9341 27.3852C99.9253 27.519 99.8712 27.6474 99.7788 27.7542H86.0932C85.8968 27.7546 85.7045 27.7055 85.5391 27.6127C85.3738 27.5199 85.2425 27.3873 85.1609 27.2309L81.4019 20.0829C81.3875 20.0575 81.3784 20.03 81.375 20.0018H100.113C100.181 20.002 100.248 20.0144 100.31 20.0381C100.372 20.0619 100.427 20.0966 100.473 20.1401C100.519 20.1835 100.555 20.2348 100.577 20.2906C100.599 20.3465 100.608 20.4058 100.603 20.4649Z" fill="#263238"/>
<path opacity="0.2" d="M100.603 20.4649L100.323 23.3874L100.275 23.8767L99.9341 27.3852C99.9253 27.519 99.8712 27.6474 99.7788 27.7542H86.0932C85.8968 27.7546 85.7045 27.7055 85.5391 27.6127C85.3738 27.5199 85.2425 27.3873 85.1609 27.2309L83.395 23.8793L83.141 23.39L81.4019 20.0829C81.3875 20.0575 81.3784 20.03 81.375 20.0018H100.113C100.181 20.002 100.248 20.0144 100.31 20.0381C100.372 20.0619 100.427 20.0966 100.473 20.1401C100.519 20.1835 100.555 20.2348 100.577 20.2906C100.599 20.3465 100.608 20.4058 100.603 20.4649Z" fill="white"/>
<path d="M83.9565 20.3498L84.2942 19.9992H82.6328L82.9705 20.3498H83.9565Z" fill="#263238"/>
<path d="M87.355 20.3498L87.6926 19.9992H86.0312L86.3689 20.3498H87.355Z" fill="#263238"/>
<path d="M90.7573 20.3498L91.095 19.9992H89.4336L89.7712 20.3498H90.7573Z" fill="#263238"/>
<path d="M94.1558 20.3498L94.4934 19.9992H92.832L93.1697 20.3498H94.1558Z" fill="#263238"/>
<path d="M97.562 20.3498L97.8967 19.9992H96.2383L96.5729 20.3498H97.562Z" fill="#263238"/>
<path d="M100.596 20.3498C100.576 20.2512 100.516 20.162 100.428 20.0979C100.34 20.0338 100.229 19.9988 100.115 19.9992H99.6367L99.9744 20.3498H100.596Z" fill="#263238"/>
<path d="M82.7465 20.4754L82.2864 19.9992H81.375C81.3784 20.0274 81.3875 20.0549 81.4019 20.0803L81.877 20.9856H82.2535L82.7465 20.4754Z" fill="#263238"/>
<path d="M84.6688 20.9882H85.6549L86.1479 20.4754L85.6878 19.9992H84.633L84.1758 20.4754L84.6688 20.9882Z" fill="#263238"/>
<path d="M88.0712 20.9882H89.0572L89.5503 20.4754L89.0931 19.9992H88.0353L87.5781 20.4754L88.0712 20.9882Z" fill="#263238"/>
<path d="M91.4696 20.9882H92.4557L92.9487 20.4754L92.4915 19.9992H91.4367L90.9766 20.4754L91.4696 20.9882Z" fill="#263238"/>
<path d="M94.8719 20.9882H95.858L96.3511 20.4754L95.8939 19.9992H94.8391L94.3789 20.4754L94.8719 20.9882Z" fill="#263238"/>
<path d="M98.2743 20.9882H99.2604L99.7534 20.4754L99.2932 19.9992H98.2384L97.7812 20.4754L98.2743 20.9882Z" fill="#263238"/>
<path d="M83.9548 20.601H82.9687L82.4727 21.1111L82.9687 21.624H83.9548L84.4478 21.1111L83.9548 20.601Z" fill="#263238"/>
<path d="M87.3541 21.624L87.8472 21.1111L87.3541 20.601H86.368L85.875 21.1111L86.368 21.624H87.3541Z" fill="#263238"/>
<path d="M90.7565 21.624L91.2495 21.1111L90.7565 20.601H89.7704L89.2773 21.1111L89.7704 21.624H90.7565Z" fill="#263238"/>
<path d="M94.1588 21.624L94.6518 21.1111L94.1588 20.601H93.1727L92.6797 21.1111L93.1727 21.624H94.1588Z" fill="#263238"/>
<path d="M97.5602 21.624L98.0533 21.1111L97.5602 20.601H96.5712L96.0781 21.1111L96.5712 21.624H97.5602Z" fill="#263238"/>
<path d="M99.4805 21.1111L99.9735 21.624H100.493L100.589 20.601H99.9735L99.4805 21.1111Z" fill="#263238"/>
<path d="M82.2567 21.2393H82.0117L82.448 22.0635L82.7498 21.7495L82.2567 21.2393Z" fill="#263238"/>
<path d="M85.6549 22.2623L86.1479 21.7495L85.6549 21.2393H84.6688L84.1758 21.7495L84.6688 22.2623H85.6549Z" fill="#263238"/>
<path d="M88.0712 22.2623H89.0572L89.5503 21.7495L89.0572 21.2393H88.0712L87.5781 21.7495L88.0712 22.2623Z" fill="#263238"/>
<path d="M91.4696 22.2623H92.4557L92.9487 21.7495L92.4557 21.2393H91.4696L90.9766 21.7495L91.4696 22.2623Z" fill="#263238"/>
<path d="M94.8719 22.2623H95.858L96.3511 21.7495L95.858 21.2393H94.8719L94.3789 21.7495L94.8719 22.2623Z" fill="#263238"/>
<path d="M98.2743 22.2623H99.2604L99.7534 21.7495L99.2604 21.2393H98.2743L97.7812 21.7495L98.2743 22.2623Z" fill="#263238"/>
<path d="M83.9559 22.8981L84.4489 22.3879L83.9559 21.8751H82.9698L82.5664 22.2937L82.7845 22.7071L82.9698 22.8981H83.9559Z" fill="#263238"/>
<path d="M86.368 21.8751L85.875 22.3879L86.368 22.8981H87.3541L87.8472 22.3879L87.3541 21.8751H86.368Z" fill="#263238"/>
<path d="M89.7704 21.8751L89.2773 22.3879L89.7704 22.8981H90.7565L91.2495 22.3879L90.7565 21.8751H89.7704Z" fill="#263238"/>
<path d="M93.1727 21.8751L92.6797 22.3879L93.1727 22.8981H94.1588L94.6518 22.3879L94.1588 21.8751H93.1727Z" fill="#263238"/>
<path d="M97.5602 21.8751H96.5712L96.0781 22.3879L96.5712 22.8981H97.5602L98.0533 22.3879L97.5602 21.8751Z" fill="#263238"/>
<path d="M99.4805 22.3879L99.9735 22.8981H100.368L100.467 21.8751H99.9735L99.4805 22.3879Z" fill="#263238"/>
<path d="M85.6549 23.5366L86.1479 23.0237L85.6549 22.5135H84.6688L84.1758 23.0237L84.6688 23.5366H85.6549Z" fill="#263238"/>
<path d="M88.0712 22.5135L87.5781 23.0237L88.0712 23.5366H89.0572L89.5503 23.0237L89.0572 22.5135H88.0712Z" fill="#263238"/>
<path d="M91.4696 22.5135L90.9766 23.0237L91.4696 23.5366H92.4557L92.9487 23.0237L92.4557 22.5135H91.4696Z" fill="#263238"/>
<path d="M94.8719 22.5135L94.3789 23.0237L94.8719 23.5366H95.858L96.3511 23.0237L95.858 22.5135H94.8719Z" fill="#263238"/>
<path d="M98.2743 22.5135L97.7812 23.0237L98.2743 23.5366H99.2604L99.7534 23.0237L99.2604 22.5135H98.2743Z" fill="#263238"/>
<path d="M84.4469 23.6621L83.9539 23.1519H83.0156L83.5535 24.1749H83.9539L84.4469 23.6621Z" fill="#263238"/>
<path d="M86.368 24.1749H87.3541L87.8472 23.6621L87.3541 23.1519H86.368L85.875 23.6621L86.368 24.1749Z" fill="#263238"/>
<path d="M89.7704 23.1519L89.2773 23.6621L89.7704 24.1749H90.7565L91.2495 23.6621L90.7565 23.1519H89.7704Z" fill="#263238"/>
<path d="M94.1588 24.1749L94.6518 23.6621L94.1588 23.1519H93.1727L92.6797 23.6621L93.1727 24.1749H94.1588Z" fill="#263238"/>
<path d="M97.5602 24.1749L98.0533 23.6621L97.5602 23.1519H96.5712L96.0781 23.6621L96.5712 24.1749H97.5602Z" fill="#263238"/>
<path d="M99.4805 23.6621L99.9735 24.1749H100.245L100.344 23.1519H99.9735L99.4805 23.6621Z" fill="#263238"/>
<path d="M85.6549 23.7877H84.6688L84.1758 24.3005L84.6688 24.8107H85.6549L86.1479 24.3005L85.6549 23.7877Z" fill="#263238"/>
<path d="M89.0572 24.8107L89.5503 24.3005L89.0572 23.7877H88.0712L87.5781 24.3005L88.0712 24.8107H89.0572Z" fill="#263238"/>
<path d="M92.4557 24.8107L92.9487 24.3005L92.4557 23.7877H91.4696L90.9766 24.3005L91.4696 24.8107H92.4557Z" fill="#263238"/>
<path d="M95.858 24.8107L96.3511 24.3005L95.858 23.7877H94.8719L94.3789 24.3005L94.8719 24.8107H95.858Z" fill="#263238"/>
<path d="M98.2743 23.7877L97.7812 24.3005L98.2743 24.8107H99.2604L99.7534 24.3005L99.2604 23.7877H98.2743Z" fill="#263238"/>
<path d="M83.9564 24.4261H83.6875L84.1297 25.2659L84.4495 24.9363L83.9564 24.4261Z" fill="#263238"/>
<path d="M87.3541 25.4491L87.8472 24.9363L87.3541 24.4261H86.368L85.875 24.9363L86.368 25.4491H87.3541Z" fill="#263238"/>
<path d="M90.7565 25.4491L91.2495 24.9363L90.7565 24.4261H89.7704L89.2773 24.9363L89.7704 25.4491H90.7565Z" fill="#263238"/>
<path d="M94.1588 25.4491L94.6518 24.9363L94.1588 24.4261H93.1727L92.6797 24.9363L93.1727 25.4491H94.1588Z" fill="#263238"/>
<path d="M97.5602 25.4491L98.0533 24.9363L97.5602 24.4261H96.5712L96.0781 24.9363L96.5712 25.4491H97.5602Z" fill="#263238"/>
<path d="M99.4805 24.9363L99.9735 25.4491H100.123L100.222 24.4261H99.9735L99.4805 24.9363Z" fill="#263238"/>
<path d="M85.6544 26.0875L86.1475 25.5747L85.6544 25.0645H84.6683L84.25 25.4962L84.4293 25.839L84.6683 26.0875H85.6544Z" fill="#263238"/>
<path d="M88.0712 26.0875H89.0572L89.5503 25.5747L89.0572 25.0645H88.0712L87.5781 25.5747L88.0712 26.0875Z" fill="#263238"/>
<path d="M92.4557 26.0875L92.9487 25.5747L92.4557 25.0645H91.4696L90.9766 25.5747L91.4696 26.0875H92.4557Z" fill="#263238"/>
<path d="M95.858 26.0875L96.3511 25.5747L95.858 25.0645H94.8719L94.3789 25.5747L94.8719 26.0875H95.858Z" fill="#263238"/>
<path d="M98.2743 25.0645L97.7812 25.5747L98.2743 26.0875H99.2604L99.7534 25.5747L99.2604 25.0645H98.2743Z" fill="#263238"/>
<path d="M87.3541 25.7003H86.368L85.875 26.2131L86.368 26.7233H87.3541L87.8472 26.2131L87.3541 25.7003Z" fill="#263238"/>
<path d="M90.7565 25.7003H89.7704L89.2773 26.2131L89.7704 26.7233H90.7565L91.2495 26.2131L90.7565 25.7003Z" fill="#263238"/>
<path d="M94.1588 25.7003H93.1727L92.6797 26.2131L93.1727 26.7233H94.1588L94.6518 26.2131L94.1588 25.7003Z" fill="#263238"/>
<path d="M97.5602 25.7003H96.5712L96.0781 26.2131L96.5712 26.7233H97.5602L98.0533 26.2131L97.5602 25.7003Z" fill="#263238"/>
<path d="M99.4805 26.2131L99.9735 26.7233H100L100.099 25.7003H99.9735L99.4805 26.2131Z" fill="#263238"/>
<path d="M86.1505 26.8619L85.6575 26.3387H84.6953L85.1644 27.2282C85.1886 27.2749 85.2176 27.3196 85.2511 27.3617H85.6575L86.1505 26.8619Z" fill="#263238"/>
<path d="M88.0712 26.3387L87.5781 26.8489L88.0712 27.3617H89.0572L89.5503 26.8489L89.0572 26.3387H88.0712Z" fill="#263238"/>
<path d="M91.4696 26.3387L90.9766 26.8489L91.4696 27.3617H92.4557L92.9487 26.8489L92.4557 26.3387H91.4696Z" fill="#263238"/>
<path d="M94.8719 26.3387L94.3789 26.8489L94.8719 27.3617H95.858L96.3511 26.8489L95.858 26.3387H94.8719Z" fill="#263238"/>
<path d="M99.2604 26.3387H98.2743L97.7812 26.8489L98.2743 27.3617H99.2604L99.7534 26.8489L99.2604 26.3387Z" fill="#263238"/>
<path d="M87.3541 26.9771H86.368L85.875 27.4873L86.129 27.7516H87.5932L87.8472 27.4873L87.3541 26.9771Z" fill="#263238"/>
<path d="M90.7565 26.9771H89.7704L89.2773 27.4873L89.5313 27.7516H90.9955L91.2495 27.4873L90.7565 26.9771Z" fill="#263238"/>
<path d="M94.1588 26.9771H93.1727L92.6797 27.4873L92.9337 27.7516H94.3978L94.6518 27.4873L94.1588 26.9771Z" fill="#263238"/>
<path d="M97.5602 26.9771H96.5712L96.0781 27.4873L96.3351 27.7516H97.7963L98.0533 27.4873L97.5602 26.9771Z" fill="#263238"/>
<path d="M99.9735 26.9745L99.4805 27.4977L99.7345 27.7594H99.7793C99.8717 27.6526 99.9258 27.5242 99.9347 27.3905L99.9765 26.9823L99.9735 26.9745Z" fill="#263238"/>
<path d="M85.5469 27.6129C85.6045 27.6443 85.6656 27.6706 85.7291 27.6914L85.6544 27.6129H85.5469Z" fill="#263238"/>
<path d="M88.072 27.6129L87.9375 27.7516H89.1925L89.058 27.6129H88.072Z" fill="#263238"/>
<path d="M91.4704 27.6129L91.3359 27.7516H92.5909L92.4565 27.6129H91.4704Z" fill="#263238"/>
<path d="M94.8698 27.6129L94.7383 27.7516H95.9903L95.8558 27.6129H94.8698Z" fill="#263238"/>
<path d="M98.2751 27.6129L98.1406 27.7516H99.3926L99.2612 27.6129H98.2751Z" fill="#263238"/>
<path d="M100.326 23.3875L100.278 23.8767H83.3985L83.1445 23.3875H100.326Z" fill="#263238"/>
<path opacity="0.2" d="M100.326 23.3875L100.278 23.8767H83.3985L83.1445 23.3875H100.326Z" fill="white"/>
<path d="M97.6034 22.7987H86.5563L85.7227 23.6621L86.5563 24.5255H97.6034L98.4371 23.6621L97.6034 22.7987Z" fill="#263238"/>
<path opacity="0.2" d="M97.6034 22.7987H86.5563L85.7227 23.6621L86.5563 24.5255H97.6034L98.4371 23.6621L97.6034 22.7987Z" fill="white"/>
<path opacity="0.2" d="M99.1079 31.6186H87.293V36.4799H99.1079V31.6186Z" fill="white"/>
<path d="M81.333 35.1664H78.6048C78.375 35.1664 78.1546 35.0865 77.9921 34.9442C77.8296 34.8019 77.7383 34.6089 77.7383 34.4077V29.8159C77.7383 29.6146 77.8296 29.4217 77.9921 29.2794C78.1546 29.1371 78.375 29.0571 78.6048 29.0571H81.4585C81.6229 29.0573 81.7839 29.0982 81.9229 29.1751C82.062 29.2519 82.1734 29.3616 82.2443 29.4914L83.0153 30.9279C83.0982 31.0868 83.1182 31.2654 83.0721 31.4354L82.1756 34.5908C82.1293 34.7556 82.0211 34.902 81.8682 35.0065C81.7154 35.1109 81.5268 35.1672 81.333 35.1664Z" fill="#263238"/>
<path opacity="0.4" d="M81.0944 31.9037C81.0944 32.6887 80.4968 33.3271 79.7796 33.3271C79.0625 33.3271 78.4648 32.6887 78.4648 31.9037C78.4648 31.1188 79.0625 30.4778 79.7796 30.4778C80.4968 30.4778 81.0944 31.1162 81.0944 31.9037Z" fill="white"/>
<path d="M103.67 35.1664H106.398C106.628 35.1664 106.848 35.0865 107.01 34.9442C107.173 34.8019 107.264 34.6089 107.264 34.4077V29.8159C107.264 29.6146 107.173 29.4217 107.01 29.2794C106.848 29.1371 106.628 29.0571 106.398 29.0571H103.544C103.38 29.0573 103.219 29.0982 103.08 29.1751C102.941 29.2519 102.829 29.3616 102.758 29.4914L101.987 30.9279C101.904 31.0868 101.884 31.2654 101.931 31.4354L102.827 34.5908C102.873 34.7556 102.982 34.902 103.134 35.0065C103.287 35.1109 103.476 35.1672 103.67 35.1664Z" fill="#263238"/>
<path opacity="0.4" d="M105.262 31.9037C105.262 32.6887 104.665 33.3271 103.948 33.3271C103.23 33.3271 102.633 32.6887 102.633 31.9037C102.633 31.1188 103.23 30.4778 103.948 30.4778C104.665 30.4778 105.262 31.1162 105.262 31.9037Z" fill="white"/>
<path d="M8.16804 28.4946C7.54354 28.9804 7.09833 29.618 6.88913 30.3261L5.31141 35.7918H5.26658C5.1592 35.9941 4.98785 36.1652 4.77284 36.2848C4.55783 36.4044 4.30816 36.4676 4.05341 36.4668H1.56133C1.38553 36.4668 1.21146 36.4365 1.04904 36.3776C0.886626 36.3187 0.739051 36.2323 0.614743 36.1235C0.490436 36.0147 0.391831 35.8854 0.324557 35.7432C0.257282 35.601 0.222657 35.4486 0.222657 35.2947V26.2236C0.222452 25.9704 0.307342 25.7228 0.466747 25.5116C0.626152 25.3004 0.853024 25.1349 1.11909 25.0358L1.57029 25.0515H4.97674C5.25394 25.0517 5.52623 25.1156 5.76639 25.2368C6.00655 25.358 6.20617 25.5323 6.34529 25.7422L8.16804 28.4946Z" fill="#263238"/>
<path opacity="0.2" d="M8.16804 28.4946C7.54354 28.9804 7.09833 29.618 6.88913 30.3261L5.31141 35.7918H5.26658C5.1592 35.9941 4.98785 36.1652 4.77284 36.2848C4.55783 36.4044 4.30816 36.4676 4.05341 36.4668H1.56133C1.38553 36.4668 1.21146 36.4365 1.04904 36.3776C0.886626 36.3187 0.739051 36.2323 0.614743 36.1235C0.490436 36.0147 0.391831 35.8854 0.324557 35.7432C0.257282 35.601 0.222657 35.4486 0.222657 35.2947V26.2236C0.222452 25.9704 0.307342 25.7228 0.466747 25.5116C0.626152 25.3004 0.853024 25.1349 1.11909 25.0358L1.57029 25.0515H4.97674C5.25394 25.0517 5.52623 25.1156 5.76639 25.2368C6.00655 25.358 6.20617 25.5323 6.34529 25.7422L8.16804 28.4946Z" fill="white"/>
<path d="M4.19613 17.9662V25.0305H1.10941V18.3535C1.10823 18.2343 1.13402 18.116 1.1853 18.0056C1.23658 17.8952 1.31232 17.7948 1.40817 17.7101C1.50402 17.6255 1.61806 17.5583 1.74372 17.5124C1.86939 17.4666 2.00418 17.443 2.14031 17.443H3.61046C3.76688 17.4457 3.91583 17.502 4.02534 17.5999C4.13484 17.6977 4.19616 17.8293 4.19613 17.9662Z" fill="#FF5E5E"/>
<path opacity="0.2" d="M4.19613 17.9662V25.0305H1.10941V18.3535C1.10823 18.2343 1.13402 18.116 1.1853 18.0056C1.23658 17.8952 1.31232 17.7948 1.40817 17.7101C1.50402 17.6255 1.61806 17.5583 1.74372 17.5124C1.86939 17.4666 2.00418 17.443 2.14031 17.443H3.61046C3.76688 17.4457 3.91583 17.502 4.02534 17.5999C4.13484 17.6977 4.19616 17.8293 4.19613 17.9662Z" fill="white"/>
<path opacity="0.4" d="M4.19616 17.9662V20.1431H1.10944V18.3561C1.10786 18.2367 1.13336 18.1182 1.18446 18.0074C1.23556 17.8967 1.31124 17.796 1.40713 17.711C1.50301 17.6261 1.61719 17.5587 1.74305 17.5127C1.86891 17.4666 2.00395 17.443 2.14034 17.443H3.61049C3.76691 17.4457 3.91587 17.502 4.02537 17.5999C4.13487 17.6977 4.19619 17.8293 4.19616 17.9662Z" fill="black"/>
<path opacity="0.7" d="M4.19609 20.1404H1.10938V22.6364H4.19609V20.1404Z" fill="white"/>
<path opacity="0.2" d="M53.9219 33.9813H32.1804C31.8651 33.981 31.5541 33.9174 31.2712 33.7954C30.9884 33.6734 30.7413 33.4962 30.5489 33.2775L30.1067 32.7777C29.8742 32.5139 29.7304 32.1986 29.6913 31.8672C28.4961 21.8831 29.7361 14.4263 29.7481 14.3531C29.7547 14.319 29.7762 14.2885 29.8079 14.268C29.8397 14.2475 29.8793 14.2386 29.9184 14.2432C29.938 14.2454 29.9569 14.2511 29.9739 14.2598C29.991 14.2686 30.0058 14.2803 30.0175 14.2943C30.0293 14.3082 30.0376 14.3241 30.0422 14.3409C30.0467 14.3578 30.0473 14.3753 30.0439 14.3923C30.0439 14.4656 28.7949 21.8909 29.9871 31.8385C30.0204 32.1243 30.1447 32.3963 30.3457 32.6234L30.785 33.1231C30.95 33.3097 31.1614 33.461 31.4032 33.5652C31.6451 33.6695 31.9109 33.7241 32.1804 33.7249H53.9219C54.1557 33.7241 54.3829 33.6572 54.5698 33.5341C54.7566 33.4111 54.8931 33.2385 54.9588 33.042L56.907 27.1237C57.1908 26.274 57.7804 25.5272 58.588 24.9945C59.3956 24.4617 60.3781 24.1716 61.3892 24.1672H68.4023C69.0066 24.1679 69.5991 24.3146 70.1144 24.591L71.4979 25.3341C71.5148 25.343 71.5295 25.3548 71.5412 25.3687C71.5529 25.3826 71.5613 25.3984 71.566 25.4151C71.5707 25.4319 71.5717 25.4493 71.5687 25.4664C71.5657 25.4835 71.5589 25.4998 71.5487 25.5146C71.5385 25.5294 71.5251 25.5423 71.5092 25.5525C71.4933 25.5627 71.4753 25.5701 71.4562 25.5742C71.437 25.5784 71.4171 25.5792 71.3976 25.5766C71.3781 25.574 71.3594 25.568 71.3426 25.5591L69.9591 24.8134C69.4904 24.5623 68.9517 24.4293 68.4023 24.4288H61.3951C60.4477 24.4321 59.5268 24.7034 58.7697 25.2022C58.0126 25.701 57.4599 26.4007 57.1939 27.197L55.2426 33.11C55.1585 33.3602 54.9847 33.58 54.7468 33.7369C54.509 33.8939 54.2197 33.9795 53.9219 33.9813Z" fill="black"/>
<path opacity="0.2" d="M54.1995 32.4559C54.1624 32.4561 54.1265 32.4441 54.0988 32.4223C54.0712 32.4006 54.0538 32.3706 54.0501 32.3382C52.9266 23.2854 54.0501 14.2432 54.0501 14.1516C54.0554 14.1176 54.0754 14.0866 54.106 14.0652C54.1366 14.0437 54.1754 14.0335 54.2145 14.0365C54.2341 14.0381 54.2532 14.0431 54.2706 14.0513C54.2881 14.0594 54.3035 14.0705 54.316 14.0838C54.3285 14.0972 54.3378 14.1127 54.3435 14.1292C54.3492 14.1458 54.351 14.1632 54.3489 14.1804C54.3489 14.2719 53.2284 23.288 54.3489 32.3094C54.3531 32.3437 54.3417 32.3781 54.317 32.4051C54.2924 32.432 54.2566 32.4493 54.2175 32.4533L54.1995 32.4559Z" fill="black"/>
<path opacity="0.2" d="M39.3055 2.13446C38.3855 5.24682 37.7284 8.41424 37.3393 11.6111H36.0664C36.5668 8.42081 37.3278 5.26607 38.3433 2.17109L39.3055 2.13446Z" fill="white"/>
<path opacity="0.2" d="M36.6353 11.3467C36.6156 11.3451 36.5965 11.3401 36.5791 11.3319C36.5617 11.3238 36.5463 11.3127 36.5338 11.2993C36.5213 11.2859 36.5119 11.2705 36.5063 11.254C36.5006 11.2374 36.4988 11.22 36.5008 11.2028C37.0028 7.01658 38.458 2.27567 38.473 2.22857C38.4835 2.19537 38.5085 2.16712 38.5426 2.14998C38.5767 2.13283 38.6172 2.12817 38.6552 2.137C38.6742 2.14123 38.6921 2.14877 38.7077 2.15915C38.7233 2.16953 38.7363 2.18254 38.7461 2.19743C38.7558 2.21231 38.7621 2.22876 38.7644 2.24579C38.7668 2.26283 38.7652 2.2801 38.7598 2.2966C38.7598 2.34369 37.2986 7.05844 36.7996 11.229C36.7951 11.2635 36.7754 11.2951 36.7447 11.317C36.714 11.339 36.6748 11.3497 36.6353 11.3467Z" fill="black"/>
<path opacity="0.2" d="M36.0758 32.4559C36.0372 32.4559 36.0001 32.4428 35.9722 32.4194C35.9444 32.396 35.928 32.3641 35.9264 32.3303C35.516 25.5801 35.7028 18.8122 36.4852 12.0872C36.4874 12.07 36.4935 12.0533 36.5032 12.0382C36.5128 12.023 36.5258 12.0097 36.5414 11.999C36.5569 11.9883 36.5748 11.9804 36.5939 11.9758C36.6129 11.9711 36.6329 11.9699 36.6525 11.9721C36.6721 11.974 36.691 11.9794 36.7082 11.9878C36.7253 11.9963 36.7404 12.0077 36.7524 12.0214C36.7644 12.0351 36.7731 12.0508 36.778 12.0675C36.7829 12.0842 36.784 12.1015 36.781 12.1186C36.0024 18.8289 35.8166 25.5819 36.2252 32.3172C36.2269 32.3522 36.2127 32.3863 36.1859 32.4122C36.1591 32.4382 36.1217 32.4538 36.0818 32.4559H36.0758Z" fill="black"/>
<path opacity="0.2" d="M105.325 17.7779H100.467C99.6658 17.1238 97.9715 16.7941 96.2324 16.7941H82.0598C80.3118 16.7941 79.7799 17.7779 79.7799 17.7779H72.8714C70.7648 16.2708 57.8203 14.1672 57.8203 14.1672C59.912 13.5079 66.2886 13.7094 66.2886 13.7094C68.6033 13.9756 70.9004 14.3485 73.1702 14.8266C71.1473 13.9056 67.1014 13.3535 67.1014 13.3535L68.9391 12.689H79.1285L86.0191 13.644H89.8678L91.063 13.4817C94.0365 13.9963 96.9643 14.6958 99.8242 15.5749L105.113 17.7046L105.325 17.7779Z" fill="white"/>
<path opacity="0.2" d="M40.9788 17.1212H38.4778C38.2495 17.1212 38.0306 17.0418 37.8692 16.9005C37.7079 16.7592 37.6172 16.5675 37.6172 16.3677C37.6168 16.2685 37.6388 16.1702 37.6818 16.0785C37.7249 15.9868 37.7882 15.9034 37.8682 15.8331C37.9481 15.7629 38.0431 15.7072 38.1477 15.6691C38.2524 15.6311 38.3645 15.6115 38.4778 15.6115H40.9788C41.0921 15.6112 41.2043 15.6304 41.3091 15.6681C41.4138 15.7058 41.509 15.7613 41.5893 15.8313C41.6695 15.9013 41.7331 15.9845 41.7766 16.0761C41.82 16.1677 41.8424 16.2659 41.8424 16.365C41.8428 16.4644 41.8207 16.5629 41.7774 16.6548C41.7342 16.7467 41.6706 16.8302 41.5903 16.9005C41.5101 16.9708 41.4147 17.0264 41.3098 17.0643C41.2048 17.1022 41.0923 17.1215 40.9788 17.1212Z" fill="white"/>
<path opacity="0.2" d="M54.1974 13.3535H51.1914L51.3856 10.9098C51.394 10.8066 51.4467 10.71 51.5333 10.6396C51.6198 10.5692 51.7336 10.5301 51.8518 10.5304H53.6984C54.0032 12.1552 54.1974 13.3535 54.1974 13.3535Z" fill="white"/>
<path d="M51.3687 8.67801H49.6983C49.2824 8.67801 48.9453 8.9732 48.9453 9.33734V12.0296C48.9453 12.3938 49.2824 12.6889 49.6983 12.6889H51.3687C51.7845 12.6889 52.1217 12.3938 52.1217 12.0296V9.33734C52.1217 8.9732 51.7845 8.67801 51.3687 8.67801Z" fill="#263238"/>
<path opacity="0.4" d="M51.3687 8.67801H49.6983C49.2824 8.67801 48.9453 8.9732 48.9453 9.33734V12.0296C48.9453 12.3938 49.2824 12.6889 49.6983 12.6889H51.3687C51.7845 12.6889 52.1217 12.3938 52.1217 12.0296V9.33734C52.1217 8.9732 51.7845 8.67801 51.3687 8.67801Z" fill="white"/>
<path d="M52.0025 10.478C52.2359 10.6891 52.5113 10.8611 52.8153 10.9856C52.8993 11.0152 52.972 11.0651 53.0249 11.1295C53.0778 11.1939 53.1087 11.2701 53.1141 11.3493L53.1947 12.3357C53.1997 12.3937 53.1909 12.452 53.169 12.5069C53.147 12.5619 53.1124 12.6122 53.0673 12.655C53.0222 12.6977 52.9675 12.7318 52.9066 12.7552C52.8458 12.7786 52.7801 12.7907 52.7137 12.7909H51.9846C51.9066 12.7912 51.8298 12.775 51.7605 12.7438L50.9895 12.3933C50.9104 12.3577 50.844 12.3037 50.7976 12.2372C50.7512 12.1708 50.7266 12.0944 50.7266 12.0165V10.7789C50.7274 10.6663 50.779 10.5585 50.8703 10.4791C50.9615 10.3996 51.085 10.3551 51.2136 10.3551H51.6559C51.7854 10.3546 51.9099 10.3988 52.0025 10.478Z" fill="#263238"/>
<path opacity="0.3" d="M52.0025 10.478C52.2359 10.6891 52.5113 10.8611 52.8153 10.9856C52.8993 11.0152 52.972 11.0651 53.0249 11.1295C53.0778 11.1939 53.1087 11.2701 53.1141 11.3493L53.1947 12.3357C53.1997 12.3937 53.1909 12.452 53.169 12.5069C53.147 12.5619 53.1124 12.6122 53.0673 12.655C53.0222 12.6977 52.9675 12.7318 52.9066 12.7552C52.8458 12.7786 52.7801 12.7907 52.7137 12.7909H51.9846C51.9066 12.7912 51.8298 12.775 51.7605 12.7438L50.9895 12.3933C50.9104 12.3577 50.844 12.3037 50.7976 12.2372C50.7512 12.1708 50.7266 12.0944 50.7266 12.0165V10.7789C50.7274 10.6663 50.779 10.5585 50.8703 10.4791C50.9615 10.3996 51.085 10.3551 51.2136 10.3551H51.6559C51.7854 10.3546 51.9099 10.3988 52.0025 10.478Z" fill="white"/>
<path opacity="0.2" d="M65.9727 2.71783C65.9727 2.71783 71.5574 6.11916 74.6113 9.40797C74.0388 7.99617 73.2269 6.66786 72.2029 5.46767C72.2029 5.46767 76.3623 8.00819 79.0367 11.9406L85.222 12.6889H86.8625C86.8625 12.6889 80.4022 6.11392 76.3892 3.37455C76.3892 3.37455 71.426 2.88267 65.9727 2.71783Z" fill="white"/>
</svg>
