<svg width="115" height="74" viewBox="0 0 115 74" fill="none" xmlns="http://www.w3.org/2000/svg">
<path d="M42.2125 64.0032V61.9956H1.23286C1.08755 61.9956 0.948168 62.0533 0.845222 62.156C0.742276 62.2588 0.684157 62.3983 0.683594 62.5439V63.4549C0.684157 63.6005 0.742276 63.74 0.845222 63.8427C0.948168 63.9455 1.08755 64.0032 1.23286 64.0032H2.37396V64.9163C2.37396 65.0601 2.31699 65.1979 2.21558 65.2995C2.11417 65.4012 1.97663 65.4583 1.83322 65.4583H1.22434C1.0813 65.4583 0.944076 65.5151 0.842727 65.6162C0.741378 65.7174 0.684157 65.8547 0.683594 65.998V66.9197C0.684157 67.0631 0.741378 67.2004 0.842727 67.3015C0.944076 67.4027 1.0813 67.4595 1.22434 67.4595H42.2125V65.4519H32.66V63.9968L42.2125 64.0032ZM12.1947 64.0032H14.6493V65.4583H12.1968L12.1947 64.0032ZM10.5575 65.4583H8.1029V64.0032H10.5597L10.5575 65.4583ZM16.2929 64.0032H18.7497V65.4583H16.2929V64.0032ZM20.3868 64.0032H22.8414V65.4583H20.3825L20.3868 64.0032ZM24.4786 64.0032H26.9375V65.4583H24.4743L24.4786 64.0032ZM4.01536 64.0032H6.47001V65.4583H4.0111L4.01536 64.0032ZM31.0272 65.4583H28.5661V64.0032H31.0229L31.0272 65.4583Z" fill="#455A64"/>
<path d="M75.243 29.4148C75.3102 29.346 75.3629 29.2646 75.3982 29.1751C75.4336 29.0857 75.4507 28.9901 75.4488 28.894C75.4468 28.7978 75.4257 28.703 75.3867 28.6152C75.3477 28.5273 75.2916 28.4481 75.2217 28.3822L68.3091 21.8344C68.171 21.7045 67.9887 21.6322 67.7993 21.6322C67.6098 21.6322 67.4275 21.7045 67.2894 21.8344C67.2167 21.9021 67.1583 21.9836 67.1175 22.0742C67.0767 22.1648 67.0544 22.2626 67.0518 22.362C67.0492 22.4613 67.0664 22.5602 67.1025 22.6528C67.1385 22.7454 67.1927 22.8298 67.2617 22.9012L70.0187 25.807L68.5838 27.1917L67.8365 26.5964L62.6228 32.5809L59.836 29.8948L56.4766 39.7964L57.1429 53.2376H64.8709L64.3302 37.264L69.5141 29.8649L69.5545 28.1048L71.0448 26.5751L74.2573 29.451C74.3967 29.5754 74.5785 29.641 74.7649 29.6343C74.9513 29.6275 75.128 29.5489 75.2579 29.4148H75.243Z" fill="#263238"/>
<path d="M71.6992 52.2731L76.3999 39.184L74.6329 38.4672V35.939L87.4852 35.7406C87.7882 35.7347 88.0787 35.6188 88.3027 35.4143C88.5267 35.2098 88.6689 34.9307 88.7029 34.629L90.5934 17.8127C90.6358 17.4366 90.8148 17.0893 91.0964 16.8371C91.3779 16.5848 91.7422 16.4453 92.1199 16.4451C92.3269 16.4449 92.5319 16.4867 92.7224 16.568C92.9129 16.6492 93.0851 16.7683 93.2285 16.918C93.3719 17.0677 93.4836 17.2449 93.5568 17.439C93.6301 17.6331 93.6634 17.84 93.6548 18.0473L92.9352 35.3757L99.6456 35.412L99.8734 38.5717L80.0276 39.3505L74.8522 52.0854L71.6992 52.2731Z" fill="#455A64"/>
<path d="M74.657 51.9531L57.9492 52.0854V53.2012L64.8704 53.1116L75.8939 53.0263L102.62 49.2457L99.591 37.6906H81.4951C81.1823 37.686 80.8731 37.7577 80.5941 37.8997C80.3152 38.0417 80.0749 38.2497 79.8942 38.5056L74.657 51.9531Z" fill="#263238"/>
<path d="M66.6466 3.63113L54.5117 42.4461L54.5969 53.2438H58.4438V42.5144L68.3944 3.73567L95.3552 3.5842L100.511 43.978H103.554L97.2797 3.86795C97.181 3.34329 96.9026 2.86964 96.4925 2.5288C96.0824 2.18796 95.5664 2.00133 95.0337 2.00113H68.8351C68.344 2.00092 67.8658 2.15938 67.4716 2.45299C67.0773 2.74661 66.788 3.15975 66.6466 3.63113Z" fill="#455A64"/>
<path d="M52.3242 65.7144V55.3455L54.5894 53.244L75.8787 52.9688L79.7107 49.8453C80.4245 49.2645 81.3028 48.9241 82.2207 48.8724L86.321 48.6399C86.321 48.6399 88.1604 47.3704 89.9402 46.1117C92.1943 44.511 94.8885 43.6507 97.6512 43.6496H109.452C109.88 43.6496 110.291 43.8202 110.594 44.1239C110.897 44.4276 111.068 44.8395 111.068 45.2689V65.7144H52.3242Z" fill="#FF725E"/>
<path d="M111.061 62.3732H52.1133V65.7825H111.061V62.3732Z" fill="#263238"/>
<path d="M55.1649 65.6759C55.1435 67.1206 55.5502 68.5393 56.3335 69.7524C57.1168 70.9656 58.2415 71.9186 59.5653 72.4912C60.8891 73.0637 62.3526 73.2299 63.7707 72.9688C65.1888 72.7077 66.4978 72.031 67.5321 71.0243C68.5664 70.0176 69.2796 68.7261 69.5814 67.3132C69.8833 65.9003 69.7602 64.4294 69.2278 63.0866C68.6955 61.7438 67.7777 60.5893 66.5906 59.7692C65.4034 58.9492 64.0003 58.5004 62.5586 58.4795C60.626 58.4516 58.7614 59.194 57.3749 60.5435C55.9884 61.893 55.1934 63.7391 55.1649 65.6759Z" fill="#263238"/>
<path d="M55.1681 65.6588C55.1681 65.6588 55.1681 65.6695 55.1681 65.6759C55.1571 67.6021 55.9056 69.4547 57.2509 70.8305C58.5961 72.2063 60.4291 72.994 62.351 73.0221C64.2728 73.0502 66.128 72.3165 67.5127 70.9807C68.8975 69.6448 69.6997 67.8149 69.7448 65.8893C69.7448 65.8893 69.7448 65.8765 69.7448 65.8701L55.1681 65.6588Z" fill="#263238"/>
<path d="M57.3364 65.7078C57.3234 66.7198 57.61 67.7129 58.16 68.5617C58.7099 69.4105 59.4985 70.077 60.4262 70.477C61.3538 70.8769 62.379 70.9924 63.3721 70.8088C64.3652 70.6253 65.2818 70.1509 66.006 69.4456C66.7303 68.7403 67.2298 67.8358 67.4414 66.8462C67.653 65.8566 67.5672 64.8264 67.1949 63.8856C66.8226 62.9449 66.1805 62.1358 65.3496 61.5605C64.5187 60.9853 63.5364 60.6696 62.5267 60.6535C61.8544 60.6428 61.1867 60.7652 60.5617 61.0135C59.9368 61.2619 59.3669 61.6315 58.8847 62.101C58.4025 62.5706 58.0175 63.1309 57.7518 63.7498C57.4861 64.3687 57.345 65.0341 57.3364 65.7078Z" fill="#FAFAFA"/>
<path d="M62.5263 60.6535C61.854 60.6428 61.1863 60.7652 60.5613 61.0135C59.9363 61.2619 59.3664 61.6315 58.8843 62.101C58.4021 62.5706 58.0171 63.1309 57.7514 63.7498C57.4857 64.3687 57.3445 65.0341 57.3359 65.7078L67.5697 65.855C67.5804 65.1814 67.4583 64.5122 67.2104 63.8859C66.9626 63.2595 66.5938 62.6884 66.1253 62.2052C65.6568 61.722 65.0977 61.3362 64.4801 61.0699C63.8625 60.8037 63.1985 60.6622 62.5263 60.6535Z" fill="#E0E0E0"/>
<path d="M59.3362 65.7376C59.3286 66.3553 59.504 66.9614 59.8402 67.4792C60.1764 67.997 60.6582 68.4033 61.2248 68.6466C61.7913 68.89 62.4172 68.9596 63.0232 68.8465C63.6292 68.7334 64.1881 68.4428 64.6293 68.0114C65.0705 67.58 65.3741 67.0272 65.5018 66.4228C65.6295 65.8185 65.5755 65.1898 65.3467 64.6162C65.1178 64.0426 64.7244 63.5499 64.2161 63.2004C63.7079 62.8509 63.1076 62.6602 62.4912 62.6526C61.6648 62.6429 60.8683 62.9624 60.2767 63.5408C59.6851 64.1193 59.3468 64.9094 59.3362 65.7376Z" fill="#263238"/>
<path d="M90.8328 65.6759C90.8115 67.1206 91.2182 68.5393 92.0015 69.7524C92.7847 70.9656 93.9094 71.9186 95.2332 72.4912C96.5571 73.0637 98.0206 73.2299 99.4387 72.9688C100.857 72.7077 102.166 72.031 103.2 71.0243C104.234 70.0176 104.948 68.7261 105.249 67.3132C105.551 65.9003 105.428 64.4294 104.896 63.0866C104.363 61.7438 103.446 60.5893 102.259 59.7692C101.071 58.9492 99.6683 58.5004 98.2266 58.4795C96.294 58.4516 94.4294 59.194 93.0429 60.5435C91.6564 61.893 90.8614 63.7391 90.8328 65.6759Z" fill="#263238"/>
<path d="M90.8361 65.6588C90.8361 65.6588 90.8361 65.6695 90.8361 65.6759C90.825 67.6021 91.5736 69.4547 92.9188 70.8305C94.2641 72.2063 96.0971 72.994 98.0189 73.0221C99.9408 73.0502 101.796 72.3165 103.181 70.9807C104.565 69.6448 105.368 67.8149 105.413 65.8893C105.413 65.8893 105.413 65.8765 105.413 65.8701L90.8361 65.6588Z" fill="#263238"/>
<path d="M93.0043 65.7078C92.9914 66.7198 93.278 67.7129 93.8279 68.5617C94.3779 69.4105 95.1665 70.077 96.0942 70.477C97.0218 70.8769 98.0469 70.9924 99.0401 70.8088C100.033 70.6253 100.95 70.1509 101.674 69.4456C102.398 68.7403 102.898 67.8358 103.109 66.8462C103.321 65.8566 103.235 64.8264 102.863 63.8856C102.491 62.9449 101.848 62.1358 101.018 61.5605C100.187 60.9853 99.2044 60.6696 98.1946 60.6535C97.5224 60.6428 96.8547 60.7652 96.2297 61.0135C95.6047 61.2619 95.0348 61.6315 94.5526 62.101C94.0705 62.5706 93.6855 63.1309 93.4198 63.7498C93.1541 64.3687 93.0129 65.0341 93.0043 65.7078Z" fill="#FAFAFA"/>
<path d="M98.1942 60.6535C97.522 60.6428 96.8542 60.7652 96.2293 61.0135C95.6043 61.2619 95.0344 61.6315 94.5522 62.101C94.07 62.5706 93.6851 63.1309 93.4194 63.7498C93.1537 64.3687 93.0125 65.0341 93.0039 65.7078L103.238 65.855C103.248 65.1814 103.126 64.5122 102.878 63.8859C102.631 63.2595 102.262 62.6884 101.793 62.2052C101.325 61.722 100.766 61.3362 100.148 61.0699C99.5304 60.8037 98.8665 60.6622 98.1942 60.6535Z" fill="#E0E0E0"/>
<path d="M95.0041 65.7376C94.9966 66.355 95.1719 66.9608 95.5078 67.4785C95.8437 67.9961 96.3251 68.4024 96.8913 68.6459C97.4575 68.8895 98.083 68.9594 98.6888 68.8468C99.2946 68.7342 99.8536 68.4443 100.295 68.0135C100.736 67.5827 101.041 67.0305 101.169 66.4266C101.297 65.8227 101.244 65.1942 101.016 64.6205C100.789 64.0468 100.396 63.5537 99.8887 63.2034C99.3813 62.8531 98.7817 62.6614 98.1656 62.6525C97.7558 62.6466 97.3488 62.7218 96.968 62.8737C96.5871 63.0256 96.24 63.2513 95.9463 63.5379C95.6526 63.8244 95.4183 64.1662 95.2566 64.5437C95.0949 64.9212 95.0091 65.3269 95.0041 65.7376Z" fill="#263238"/>
<path d="M107.606 60.5833C107.593 60.5671 107.58 60.55 107.57 60.5321L107.476 60.3785L107.327 60.1267C107.262 60.0114 107.191 59.8996 107.114 59.7917C106.646 59.0869 106.095 58.442 105.471 57.8716C105.283 57.6817 105.055 57.5174 104.832 57.3275C104.608 57.1377 104.353 56.9755 104.097 56.7942C103.842 56.6128 103.561 56.4464 103.259 56.2992C103.112 56.2224 102.963 56.1392 102.809 56.0645L102.33 55.8511C101.651 55.564 100.943 55.3495 100.218 55.2111C99.4409 55.0613 98.6487 55.0011 97.8575 55.0319C96.3239 55.1177 94.8287 55.5448 93.4804 56.2821L93.0248 56.5381C92.8779 56.6277 92.7395 56.7259 92.599 56.8155C92.3116 56.9904 92.0647 57.2038 91.8113 57.3894C91.558 57.575 91.3387 57.7862 91.1301 57.9889C90.9214 58.1916 90.7171 58.3858 90.5467 58.5927C89.9795 59.2204 89.4912 59.9154 89.0927 60.6622C89.026 60.7765 88.9662 60.8948 88.9139 61.0164C88.8649 61.1188 88.8223 61.2063 88.7883 61.2809L88.7095 61.4431C88.7012 61.4617 88.6912 61.4796 88.6797 61.4964C88.6833 61.4764 88.6897 61.457 88.6988 61.4388L88.767 61.2724L88.8819 61.0036C88.9322 60.8801 88.9898 60.7597 89.0544 60.643C89.4407 59.8837 89.9229 59.1774 90.4893 58.5415C90.6575 58.3282 90.8682 58.1404 91.0705 57.9271C91.2727 57.7137 91.5154 57.526 91.7539 57.3169C91.9923 57.1078 92.2563 56.9136 92.5437 56.7344C92.6842 56.6427 92.8247 56.5445 92.9695 56.4528L93.4272 56.1904C94.0818 55.8346 94.7718 55.5486 95.4859 55.337C96.2547 55.1105 97.0468 54.9731 97.8468 54.9273C99.3973 54.8668 100.942 55.1547 102.367 55.7701L102.848 55.9834C103.003 56.0581 103.152 56.1434 103.301 56.2224C103.606 56.3717 103.872 56.5637 104.153 56.7259C104.434 56.888 104.662 57.0843 104.889 57.2699C105.117 57.4555 105.341 57.6305 105.528 57.8225C106.151 58.4024 106.698 59.0599 107.154 59.7789C107.232 59.8887 107.303 60.0027 107.367 60.1203L107.506 60.3785C107.542 60.4446 107.57 60.4958 107.591 60.5385C107.612 60.5811 107.608 60.5811 107.606 60.5833Z" fill="#263238"/>
<path d="M71.9694 61.9274C71.957 61.9096 71.947 61.8902 71.9396 61.8698C71.9226 61.825 71.8991 61.7674 71.8693 61.6948L71.7544 61.4111C71.7033 61.3001 71.6458 61.1721 71.5819 61.0292C71.2109 60.2229 70.7487 59.4619 70.2045 58.7613C69.4107 57.711 68.3979 56.8468 67.2368 56.2288C66.5414 55.8885 65.8041 55.6424 65.044 55.497C64.2297 55.3289 63.3992 55.253 62.5681 55.2708C61.7369 55.2825 60.9098 55.3892 60.1028 55.5887C59.3519 55.7772 58.628 56.0604 57.9483 56.4315C56.7872 57.0502 55.7489 57.8767 54.8848 58.8701C54.3102 59.5434 53.8105 60.2773 53.3945 61.0591C53.2455 61.3364 53.1327 61.554 53.0624 61.6991C53.0283 61.7695 52.9985 61.825 52.9772 61.8677C52.9692 61.8875 52.9584 61.9062 52.9453 61.9231C52.9491 61.9022 52.9563 61.882 52.9666 61.8634L53.0432 61.6906C53.1071 61.537 53.2136 61.3172 53.3562 61.0356C53.7593 60.2406 54.2522 59.4947 54.8252 58.8125C55.6882 57.8033 56.7305 56.9634 57.8993 56.3355C58.5857 55.96 59.3168 55.6733 60.0751 55.4821C60.8904 55.2802 61.7261 55.1721 62.5659 55.1599C63.4061 55.1453 64.2452 55.2254 65.0674 55.3989C65.836 55.5477 66.5814 55.7989 67.2836 56.1456C68.4542 56.7745 69.4719 57.6545 70.2641 58.7229C70.806 59.4319 71.2613 60.2033 71.6202 61.0207L71.782 61.4068C71.8225 61.5199 71.8587 61.6202 71.8864 61.6948C71.914 61.7695 71.9332 61.8271 71.9481 61.8741C71.9573 61.8909 71.9644 61.9088 71.9694 61.9274Z" fill="#263238"/>
<path d="M52.3089 61.9956H19.9961V65.7826H52.3089V61.9956Z" fill="#263238"/>
<path d="M51.4328 63.6022C51.4328 63.7887 51.3776 63.971 51.2742 64.1261C51.1708 64.2811 51.0238 64.402 50.8519 64.4734C50.6799 64.5448 50.4907 64.5634 50.3082 64.5271C50.1257 64.4907 49.958 64.4009 49.8264 64.269C49.6948 64.1371 49.6052 63.9691 49.5689 63.7861C49.5326 63.6032 49.5512 63.4136 49.6224 63.2413C49.6936 63.069 49.8142 62.9217 49.969 62.8181C50.1237 62.7145 50.3057 62.6591 50.4918 62.6591C50.7413 62.6591 50.9807 62.7585 51.1571 62.9354C51.3336 63.1122 51.4328 63.3521 51.4328 63.6022Z" fill="#455A64"/>
<path d="M51.8848 1.70258H49.1875V55.3988H51.8848V1.70258Z" fill="#455A64"/>
<path d="M90.2435 58.4581C90.2435 58.488 85.6962 58.5136 80.0886 58.5136C74.481 58.5136 69.9336 58.488 69.9336 58.4581C69.9336 58.4282 74.4789 58.4026 80.0886 58.4026C85.6983 58.4026 90.2435 58.4282 90.2435 58.4581Z" fill="#263238"/>
<path d="M86.1061 57.6539C86.0742 57.6539 86.0508 55.6719 86.0508 53.2269C86.0508 50.7819 86.0742 48.802 86.1061 48.802C86.1381 48.802 86.1615 50.7819 86.1615 53.2269C86.1615 55.6719 86.1359 57.6539 86.1061 57.6539Z" fill="#263238"/>
<path d="M54.4038 0.471466H48.8984V2.93354H54.4038V0.471466Z" fill="#263238"/>
<path d="M52.3064 54.955H48.7617V62.0425H52.3064V54.955Z" fill="#263238"/>
<path d="M111.992 49.5593C113.135 49.8366 114.096 50.9994 114.076 52.1792C114.052 52.7702 113.835 53.3369 113.459 53.7924C113.082 54.2479 112.567 54.5671 111.992 54.701" fill="#FF725E"/>
<g opacity="0.6">
<path d="M111.992 49.5593C113.135 49.8366 114.096 50.9994 114.076 52.1792C114.052 52.7702 113.835 53.3369 113.459 53.7924C113.082 54.2479 112.567 54.5671 111.992 54.701" fill="white"/>
</g>
<path d="M112.04 48.898H111.062V55.3861H112.04V48.898Z" fill="#FF725E"/>
<path opacity="0.3" d="M112.04 48.898H111.062V55.3861H112.04V48.898Z" fill="black"/>
</svg>
