<svg width="118" height="52" viewBox="0 0 118 52" fill="none" xmlns="http://www.w3.org/2000/svg">
<path d="M112.536 41.7111L4.32422 44.2485V25.7433H113.577L112.536 41.7111Z" fill="#263238"/>
<path opacity="0.5" d="M112.536 41.7111L4.32422 44.2485V25.7433H113.577L112.536 41.7111Z" fill="black"/>
<path d="M0.164062 30.4921V39.8759C0.164547 40.8546 0.478558 41.8074 1.06007 42.5947C1.64159 43.382 2.46004 43.9623 3.39546 44.2507L4.15901 44.4825C4.63051 44.6286 5.12259 44.6974 5.61609 44.686L10.6699 44.5678C10.1319 42.6874 10.0321 40.7087 10.378 38.7837C10.724 36.8587 11.5066 35.0386 12.6656 33.463C13.8247 31.8875 15.3295 30.5984 17.0645 29.6948C18.7994 28.7913 20.7184 28.2972 22.6741 28.2506C24.6298 28.204 26.5701 28.606 28.3462 29.4259C30.1223 30.2457 31.6868 31.4616 32.9197 32.9801C34.1526 34.4987 35.021 36.2795 35.4583 38.1858C35.8957 40.0921 35.8903 42.0733 35.4425 43.9773L86.8561 42.7545C86.7722 42.1545 86.732 41.5492 86.7358 40.9434C86.6992 39.235 87.005 37.5366 87.6353 35.9483C88.2657 34.36 89.2077 32.9139 90.4058 31.6954C91.604 30.4769 93.0341 29.5105 94.6117 28.8533C96.1893 28.1961 97.8826 27.8613 99.5917 27.8688C101.301 27.8762 102.991 28.2257 104.563 28.8967C106.135 29.5676 107.556 30.5464 108.744 31.7753C109.931 33.0042 110.861 34.4585 111.477 36.0522C112.094 37.6459 112.385 39.3469 112.333 41.0549C112.333 41.3043 112.311 41.5493 112.311 41.7964C112.379 41.768 112.449 41.7418 112.517 41.7089L114.267 40.9237C115.115 40.539 115.835 39.9181 116.339 39.1352C116.844 38.3524 117.112 37.4408 117.111 36.5096V17.4006C117.112 16.5186 116.871 15.6532 116.415 14.8983C115.958 14.1434 115.304 13.5276 114.523 13.1177L101.348 6.16844C101.229 6.10512 101.131 6.00876 101.066 5.89098C101.001 5.77319 100.971 5.63902 100.98 5.50465C100.989 5.37029 101.037 5.24147 101.118 5.13375C101.199 5.02603 101.309 4.944 101.436 4.89757L103.052 4.31792C103.134 4.29092 103.203 4.23707 103.25 4.16525C103.296 4.09343 103.317 4.00792 103.308 3.92283C103.299 3.83774 103.262 3.75814 103.202 3.69715C103.142 3.63617 103.063 3.59743 102.978 3.58733C96.6991 2.71238 72.2721 -0.481186 59.4406 1.08716C44.6291 2.9005 30.4346 15.7426 30.4346 15.7426C19.524 15.3423 9.34412 19.1396 4.96412 21.0404C4.26483 21.3455 3.63711 21.7934 3.12129 22.3555C2.60547 22.9175 2.21297 23.5812 1.96901 24.304L0.470358 28.7444C0.273779 29.3064 0.170317 29.8967 0.164062 30.4921Z" fill="#FF5E5E"/>
<path d="M86.8806 42.7633C86.8062 42.1998 86.7689 41.632 86.769 41.0637C86.769 40.7727 86.769 40.4862 86.7975 40.2018L77.5015 36.3936C76.9573 36.1725 76.3703 36.0768 75.784 36.1136L43.4394 38.2354C42.9107 38.2691 42.3946 38.4113 41.9233 38.6532L35.7777 41.8139C35.7338 42.5439 35.6291 43.269 35.4648 43.9816L86.8806 42.7633Z" fill="#263238"/>
<path d="M117.149 36.5139V36.0262L111.898 37.6361C112.205 38.7514 112.36 39.9027 112.36 41.0593C112.36 41.3087 112.338 41.5537 112.338 41.8008C112.406 41.7724 112.476 41.7461 112.544 41.7133L114.307 40.9281C115.155 40.5431 115.874 39.922 116.378 39.1392C116.882 38.3564 117.15 37.4449 117.149 36.5139Z" fill="#263238"/>
<path d="M1.65625 43.2445C2.15741 43.7071 2.75529 44.0523 3.4065 44.2551L4.17223 44.4869C4.64299 44.633 5.13434 44.7017 5.62713 44.6904L10.681 44.5722C10.4984 43.9333 10.3667 43.2808 10.2872 42.6211L1.65625 43.2445Z" fill="#263238"/>
<path d="M99.5813 27.0557C97.5956 27.055 95.6325 27.4765 93.8222 28.2923C92.012 29.1082 90.396 30.2996 89.0815 31.7876C87.767 33.2756 86.7841 35.0261 86.198 36.9229C85.6119 38.8198 85.4361 40.8195 85.6821 42.7895L86.9073 42.7633C86.8235 42.1632 86.7832 41.5579 86.787 40.9521C86.7504 39.2437 87.0562 37.5453 87.6866 35.957C88.3169 34.3687 89.2589 32.9227 90.4571 31.7041C91.6552 30.4856 93.0853 29.5192 94.6629 28.862C96.2405 28.2048 97.9338 27.8701 99.6429 27.8775C101.352 27.885 103.042 28.2345 104.614 28.9054C106.186 29.5763 107.608 30.5551 108.795 31.784C109.983 33.013 110.912 34.4672 111.528 36.0609C112.145 37.6547 112.436 39.3557 112.384 41.0637C112.384 41.313 112.365 41.558 112.365 41.8052C112.432 41.7767 112.502 41.7505 112.57 41.7177L113.581 41.2583V41.0637C113.576 37.3524 112.099 33.7947 109.474 31.1705C106.849 28.5462 103.291 27.0697 99.5791 27.0644L99.5813 27.0557Z" fill="#263238"/>
<path d="M22.997 27.0557C20.8547 27.0529 18.7403 27.5416 16.8165 28.4842C14.8928 29.4268 13.2111 30.7982 11.9008 32.4928C10.5905 34.1873 9.68664 36.1599 9.25873 38.2587C8.83081 40.3574 8.89028 42.5263 9.43256 44.5985L10.6752 44.5722C10.138 42.692 10.0387 40.7136 10.3851 38.7891C10.7315 36.8645 11.5143 35.0449 12.6735 33.4698C13.8326 31.8948 15.3373 30.6062 17.072 29.7029C18.8067 28.7997 20.7253 28.3058 22.6806 28.2592C24.6359 28.2125 26.5759 28.6144 28.3517 29.434C30.1275 30.2536 31.6919 31.469 32.9248 32.9871C34.1577 34.5051 35.0264 36.2854 35.4641 38.1912C35.9019 40.0971 35.897 42.0779 35.45 43.9816L36.6905 43.9532C37.1222 41.9135 37.0928 39.8031 36.6044 37.7763C36.1161 35.7494 35.181 33.8572 33.8677 32.2378C32.5543 30.6184 30.8957 29.3128 29.0131 28.4162C27.1305 27.5197 25.0713 27.0548 22.9861 27.0557H22.997Z" fill="#263238"/>
<path d="M35.184 16.296C35.0305 16.4299 34.9251 16.6105 34.8843 16.81C34.8273 17.032 34.8555 17.2673 34.9631 17.4697C35.0708 17.672 35.2502 17.8268 35.4662 17.9037L40.811 19.4021C41.2823 19.5354 41.7756 19.5725 42.2616 19.5114L81.8981 14.6008C82.8919 14.4623 83.7988 13.9594 84.4426 13.1899L89.6408 7.13306C89.8198 6.92534 89.9292 6.6668 89.9537 6.39373C90.0237 5.70471 89.5927 5.08131 88.9866 5.00475C79.4959 3.74701 67.4958 2.59863 59.9194 3.52827C49.9889 4.74007 39.9884 12.2034 35.184 16.296Z" fill="#FF5E5E"/>
<path opacity="0.8" d="M35.3653 16.296C35.211 16.4297 35.105 16.6102 35.0633 16.81C35.007 17.0323 35.0357 17.2676 35.1437 17.4699C35.2518 17.6722 35.4314 17.8268 35.6475 17.9037L40.9923 19.4021C41.4636 19.5354 41.9569 19.5725 42.4428 19.5114L81.1912 16.856C82.156 16.7335 83.6459 14.9595 84.6917 13.5224L89.8133 7.13306C89.9901 6.92398 90.0992 6.66616 90.1262 6.39373C90.1962 5.70471 89.763 5.08131 89.1592 5.00475C79.6684 3.74701 67.6683 2.59863 60.0897 3.52827C50.168 4.74007 40.1697 12.2034 35.3653 16.296Z" fill="white"/>
<g opacity="0.3">
<path d="M61.2561 20.0648C61.1957 20.0431 61.1402 20.0096 61.0928 19.9664C61.0454 19.9232 61.0069 19.871 60.9797 19.8129C60.9524 19.7548 60.937 19.6918 60.9341 19.6277C60.9312 19.5636 60.941 19.4996 60.963 19.4393C61.0175 19.2855 61.1169 19.1516 61.2484 19.0549C61.3798 18.9582 61.5372 18.9031 61.7002 18.8968L66.4172 18.6977C66.4811 18.6951 66.545 18.7047 66.6053 18.7262C66.6663 18.7479 66.7223 18.7815 66.7703 18.825C66.8182 18.8685 66.8571 18.9209 66.8848 18.9795C66.9124 19.038 66.9282 19.1014 66.9313 19.166C66.9344 19.2306 66.9248 19.2952 66.9029 19.3561C66.8465 19.5096 66.746 19.643 66.6141 19.7395C66.4821 19.836 66.3245 19.8914 66.1612 19.8986L61.4443 20.0933C61.3803 20.0958 61.3165 20.0861 61.2561 20.0648Z" fill="black"/>
</g>
<path d="M96.3355 6.55341C96.2362 6.64147 96.1553 6.74826 96.0973 6.86767C96.0393 6.98707 96.0055 7.11674 95.9978 7.24924C95.9901 7.38174 96.0086 7.51446 96.0523 7.63979C96.096 7.76512 96.164 7.88059 96.2524 7.97958L97.3704 9.19576C97.499 9.33235 97.6623 9.4314 97.8429 9.48231L111.545 13.2818C111.784 13.3451 112.029 13.3782 112.276 13.3802H114.998C114.857 13.2843 114.711 13.1966 114.56 13.1177L101.35 6.15969C101.271 6.12058 101.2 6.06622 101.142 5.99972C101.084 5.93323 101.039 5.85591 101.011 5.77219C100.983 5.68847 100.971 5.6 100.977 5.51185C100.983 5.4237 101.007 5.3376 101.046 5.25848L96.7556 6.33249C96.6002 6.37214 96.4563 6.44783 96.3355 6.55341Z" fill="#FF5E5E"/>
<path d="M11.0049 22.8275L6.32957 22.3178L3.64513 23.4115C3.3659 23.5259 3.11746 23.7042 2.91984 23.9322C2.72222 24.1601 2.58097 24.4314 2.50747 24.724C2.41943 25.0659 2.46891 25.4287 2.6453 25.7345L2.69343 25.8155C2.83975 26.0686 3.05814 26.2724 3.32075 26.4009C3.58337 26.5295 3.87832 26.577 4.16802 26.5373L6.8634 26.1654C7.12623 26.1283 7.37538 26.0252 7.58756 25.8658L10.6986 23.5143L11.0049 22.8275Z" fill="white"/>
<path d="M30.4297 15.7448L31.1735 15.9635C31.4584 16.0443 31.7587 16.054 32.0482 15.9919C32.3377 15.9297 32.6075 15.7976 32.8341 15.607C37.1681 11.9409 44.7008 6.31936 52.8307 3.69888C52.8665 3.68643 52.8968 3.66162 52.916 3.62889C52.926 3.61142 52.9324 3.59214 52.9349 3.57216C52.9373 3.55218 52.9358 3.53191 52.9303 3.51255C52.9248 3.49318 52.9154 3.47512 52.9028 3.45941C52.8903 3.4437 52.8746 3.43067 52.8569 3.42109L51.8462 2.90268C40.1195 6.96245 30.4297 15.7448 30.4297 15.7448Z" fill="#FF5E5E"/>
<path opacity="0.8" d="M30.4297 15.7448L31.1735 15.9635C31.4584 16.0443 31.7587 16.054 32.0482 15.9919C32.3377 15.9297 32.6075 15.7976 32.8341 15.607C37.1681 11.9409 44.7008 6.31936 52.8307 3.69888C52.8665 3.68643 52.8968 3.66162 52.916 3.62889C52.926 3.61142 52.9324 3.59214 52.9349 3.57216C52.9373 3.55218 52.9358 3.53191 52.9303 3.51255C52.9248 3.49318 52.9154 3.47512 52.9028 3.45941C52.8903 3.4437 52.8746 3.43067 52.8569 3.42109L51.8462 2.90268C40.1195 6.96245 30.4297 15.7448 30.4297 15.7448Z" fill="white"/>
<path opacity="0.2" d="M74.8634 20.6926L35.4609 23.5143L36.2026 28.3725C36.4302 29.8596 36.9822 31.2785 37.8194 32.5285L41.1121 37.4501L74.7431 32.9026L90.6419 20.6926H74.8634Z" fill="white"/>
<path d="M99.5701 51.7227C105.462 51.7227 110.238 46.9476 110.238 41.0571C110.238 35.1666 105.462 30.3914 99.5701 30.3914C93.6785 30.3914 88.9023 35.1666 88.9023 41.0571C88.9023 46.9476 93.6785 51.7227 99.5701 51.7227Z" fill="#263238"/>
<path opacity="0.4" d="M99.5706 47.5952C103.182 47.5952 106.11 44.668 106.11 41.0571C106.11 37.4462 103.182 34.519 99.5706 34.519C95.959 34.519 93.0312 37.4462 93.0312 41.0571C93.0312 44.668 95.959 47.5952 99.5706 47.5952Z" fill="white"/>
<g opacity="0.3">
<path d="M99.572 35.1774H99.5698C99.281 35.1774 99.0469 35.4115 99.0469 35.7002V39.0513C99.0469 39.34 99.281 39.5741 99.5698 39.5741H99.572C99.8607 39.5741 100.095 39.34 100.095 39.0513V35.7002C100.095 35.4115 99.8607 35.1774 99.572 35.1774Z" fill="white"/>
</g>
<g opacity="0.3">
<path d="M99.572 42.5445H99.5698C99.281 42.5445 99.0469 42.7786 99.0469 43.0673V46.4184C99.0469 46.7071 99.281 46.9412 99.5698 46.9412H99.572C99.8607 46.9412 100.095 46.7071 100.095 46.4184V43.0673C100.095 42.7786 99.8607 42.5445 99.572 42.5445Z" fill="white"/>
</g>
<g opacity="0.3">
<path d="M101.568 40.5103C101.508 40.5442 101.442 40.566 101.374 40.5745C101.306 40.583 101.237 40.5779 101.17 40.5596C101.104 40.5414 101.042 40.5102 100.988 40.4679C100.934 40.4257 100.888 40.3732 100.854 40.3134C100.786 40.1933 100.767 40.0507 100.803 39.9171C100.839 39.7834 100.927 39.6695 101.047 39.6003L103.948 37.916C104.008 37.8815 104.074 37.8591 104.142 37.8501C104.211 37.8411 104.28 37.8457 104.347 37.8636C104.413 37.8815 104.476 37.9123 104.531 37.9543C104.585 37.9963 104.631 38.0487 104.666 38.1085C104.734 38.2288 104.752 38.3711 104.716 38.5046C104.68 38.6382 104.593 38.7521 104.473 38.8216L101.568 40.5059V40.5103Z" fill="white"/>
</g>
<g opacity="0.3">
<path d="M95.1887 44.1785C95.0685 44.2474 94.9259 44.2658 94.7922 44.2297C94.6585 44.1936 94.5446 44.106 94.4754 43.986C94.4414 43.9267 94.4193 43.8612 94.4105 43.7934C94.4018 43.7256 94.4065 43.6567 94.4243 43.5907C94.4422 43.5246 94.4729 43.4628 94.5147 43.4086C94.5565 43.3545 94.6086 43.3091 94.668 43.2751L97.569 41.5908C97.6892 41.5216 97.8319 41.5028 97.9659 41.5385C98.1 41.5741 98.2145 41.6614 98.2844 41.7811C98.3537 41.9016 98.3726 42.0446 98.3369 42.179C98.3013 42.3134 98.214 42.4282 98.0941 42.4986L95.1908 44.1829L95.1887 44.1785Z" fill="white"/>
</g>
<g opacity="0.3">
<path d="M103.949 44.1916L101.048 42.5073C100.988 42.4729 100.936 42.427 100.894 42.3723C100.852 42.3176 100.821 42.2551 100.803 42.1885C100.785 42.1219 100.781 42.0524 100.79 41.984C100.799 41.9156 100.821 41.8496 100.856 41.7899C100.926 41.6699 101.041 41.5827 101.175 41.5474C101.31 41.5122 101.453 41.5317 101.573 41.6018L104.474 43.2861C104.594 43.3556 104.681 43.4695 104.717 43.603C104.753 43.7365 104.735 43.8789 104.667 43.9991C104.632 44.0589 104.586 44.1113 104.532 44.1533C104.477 44.1954 104.414 44.2262 104.348 44.2441C104.281 44.262 104.212 44.2665 104.143 44.2575C104.075 44.2485 104.009 44.2261 103.949 44.1916Z" fill="white"/>
</g>
<g opacity="0.3">
<path d="M98.2851 40.3156C98.2156 40.4352 98.1015 40.5224 97.9678 40.5581C97.8341 40.5937 97.6917 40.575 97.5719 40.5059L94.6665 38.826C94.5468 38.7565 94.4596 38.6424 94.4239 38.5088C94.3883 38.3751 94.407 38.2328 94.4761 38.1129C94.5456 37.9933 94.6597 37.9061 94.7934 37.8704C94.9271 37.8348 95.0695 37.8535 95.1893 37.9226L98.0926 39.6069C98.2122 39.6764 98.2994 39.7905 98.3351 39.9241C98.3708 40.0578 98.352 40.2001 98.2829 40.32L98.2851 40.3156Z" fill="white"/>
</g>
<path d="M98.6914 41.0549C98.6914 40.8229 98.7836 40.6003 98.9477 40.4362C99.1118 40.2721 99.3344 40.18 99.5665 40.18C99.7396 40.18 99.9088 40.2313 100.053 40.3274C100.197 40.4236 100.309 40.5602 100.375 40.7201C100.441 40.88 100.459 41.0559 100.425 41.2256C100.391 41.3953 100.308 41.5512 100.185 41.6736C100.063 41.796 99.907 41.8793 99.7373 41.913C99.5675 41.9468 99.3916 41.9295 99.2316 41.8633C99.0717 41.797 98.9351 41.6849 98.8389 41.541C98.7427 41.3971 98.6914 41.228 98.6914 41.0549Z" fill="#263238"/>
<path d="M22.9959 51.7249C28.8875 51.7249 33.6637 46.9498 33.6637 41.0593C33.6637 35.1688 28.8875 30.3936 22.9959 30.3936C17.1042 30.3936 12.3281 35.1688 12.3281 41.0593C12.3281 46.9498 17.1042 51.7249 22.9959 51.7249Z" fill="#263238"/>
<path opacity="0.4" d="M22.9964 47.5974C26.608 47.5974 29.5358 44.6702 29.5358 41.0593C29.5358 37.4484 26.608 34.5212 22.9964 34.5212C19.3848 34.5212 16.457 37.4484 16.457 41.0593C16.457 44.6702 19.3848 47.5974 22.9964 47.5974Z" fill="white"/>
<g opacity="0.3">
<path d="M22.9977 35.1774H22.9955C22.7068 35.1774 22.4727 35.4115 22.4727 35.7002V39.0513C22.4727 39.34 22.7068 39.5741 22.9955 39.5741H22.9977C23.2865 39.5741 23.5206 39.34 23.5206 39.0513V35.7002C23.5206 35.4115 23.2865 35.1774 22.9977 35.1774Z" fill="white"/>
</g>
<g opacity="0.3">
<path d="M22.9977 42.5445H22.9955C22.7068 42.5445 22.4727 42.7786 22.4727 43.0673V46.4184C22.4727 46.7071 22.7068 46.9412 22.9955 46.9412H22.9977C23.2865 46.9412 23.5206 46.7071 23.5206 46.4184V43.0673C23.5206 42.7786 23.2865 42.5445 22.9977 42.5445Z" fill="white"/>
</g>
<g opacity="0.3">
<path d="M24.9935 40.5103C24.9343 40.5441 24.8689 40.5658 24.8012 40.5742C24.7335 40.5826 24.6649 40.5774 24.5992 40.5591C24.5335 40.5408 24.472 40.5097 24.4184 40.4675C24.3648 40.4253 24.3201 40.373 24.2869 40.3134C24.252 40.2543 24.2292 40.189 24.2198 40.121C24.2103 40.0531 24.2145 39.9839 24.232 39.9176C24.2495 39.8513 24.28 39.7891 24.3217 39.7346C24.3634 39.6801 24.4155 39.6345 24.475 39.6003L27.3783 37.9161C27.4377 37.8816 27.5033 37.8593 27.5714 37.8504C27.6395 37.8414 27.7086 37.846 27.7749 37.8639C27.8412 37.8818 27.9033 37.9126 27.9576 37.9546C28.012 37.9966 28.0575 38.0489 28.0915 38.1085C28.1259 38.1679 28.1482 38.2336 28.1572 38.3016C28.1661 38.3697 28.1615 38.4389 28.1436 38.5051C28.1257 38.5714 28.0949 38.6335 28.0529 38.6878C28.0109 38.7421 27.9586 38.7876 27.899 38.8216L24.9935 40.5059V40.5103Z" fill="white"/>
</g>
<g opacity="0.3">
<path d="M17.8973 43.986C17.8632 43.9267 17.8412 43.8613 17.8324 43.7934C17.8237 43.7256 17.8283 43.6567 17.8462 43.5907C17.8641 43.5247 17.8948 43.4628 17.9366 43.4087C17.9784 43.3545 18.0305 43.3091 18.0898 43.2751L20.9909 41.5909C21.111 41.5208 21.254 41.5012 21.3886 41.5365C21.5231 41.5718 21.6382 41.659 21.7085 41.779C21.743 41.8387 21.7654 41.9047 21.7744 41.9731C21.7834 42.0415 21.7788 42.111 21.7609 42.1776C21.7431 42.2442 21.7122 42.3067 21.6702 42.3614C21.6281 42.4161 21.5757 42.462 21.5159 42.4964L18.6149 44.1807C18.4938 44.2496 18.3504 44.2678 18.2159 44.2314C18.0815 44.1949 17.9669 44.1067 17.8973 43.986Z" fill="white"/>
</g>
<g opacity="0.3">
<path d="M28.091 44.0013C28.0215 44.1209 27.9074 44.2081 27.7737 44.2438C27.64 44.2795 27.4976 44.2607 27.3777 44.1916L24.4745 42.5073C24.3545 42.4371 24.2673 42.322 24.232 42.1875C24.1967 42.053 24.2163 41.91 24.2864 41.7899C24.3205 41.7304 24.3662 41.6783 24.4207 41.6366C24.4751 41.5949 24.5373 41.5644 24.6037 41.5469C24.67 41.5294 24.7392 41.5252 24.8071 41.5347C24.8751 41.5441 24.9405 41.5669 24.9996 41.6018L27.9006 43.2861C28.0203 43.3556 28.1075 43.4696 28.1431 43.6033C28.1788 43.7369 28.1601 43.8793 28.091 43.9991V44.0013Z" fill="white"/>
</g>
<g opacity="0.3">
<path d="M21.7116 40.3199C21.6414 40.4394 21.5265 40.5261 21.3924 40.561C21.2582 40.5958 21.1157 40.576 20.9962 40.5059L18.0908 38.826C18.0311 38.792 17.9788 38.7465 17.9368 38.6922C17.8948 38.6378 17.864 38.5758 17.8461 38.5095C17.8282 38.4432 17.8236 38.374 17.8326 38.306C17.8415 38.2379 17.8638 38.1723 17.8982 38.1129C17.9682 37.9926 18.0829 37.9049 18.2174 37.8688C18.3518 37.8327 18.495 37.8513 18.6158 37.9204L21.5169 39.6047C21.6365 39.6742 21.7237 39.7882 21.7594 39.9219C21.7951 40.0556 21.7763 40.1979 21.7072 40.3178L21.7116 40.3199Z" fill="white"/>
</g>
<path d="M22.9962 40.18C23.1693 40.18 23.3385 40.2313 23.4824 40.3274C23.6263 40.4236 23.7385 40.5602 23.8047 40.7201C23.871 40.88 23.8883 41.0559 23.8545 41.2256C23.8208 41.3953 23.7374 41.5512 23.615 41.6736C23.4926 41.796 23.3367 41.8793 23.1669 41.913C22.9972 41.9468 22.8212 41.9295 22.6613 41.8633C22.5014 41.797 22.3647 41.6849 22.2686 41.541C22.1724 41.3971 22.1211 41.228 22.1211 41.0549C22.1211 40.8229 22.2133 40.6003 22.3774 40.4362C22.5415 40.2721 22.7641 40.18 22.9962 40.18Z" fill="#263238"/>
<path opacity="0.3" d="M116.031 20.9398C116.201 20.8856 116.342 20.7662 116.424 20.608C116.506 20.4497 116.522 20.2655 116.469 20.0955C116.346 17.8512 115.869 15.852 114.5 14.4761C114.455 14.3295 114.362 14.2025 114.236 14.1162C114.109 14.0299 113.957 13.9894 113.804 14.0014L105.67 14.7648C105.545 14.7765 105.427 14.8225 105.327 14.8977C105.227 14.973 105.15 15.0745 105.105 15.1909C105.059 15.3073 105.047 15.4341 105.07 15.557C105.092 15.68 105.148 15.7942 105.232 15.887L107.56 18.3959C107.641 18.483 107.744 18.5472 107.858 18.5818L115.64 20.9398C115.767 20.9775 115.903 20.9775 116.031 20.9398Z" fill="black"/>
<path d="M34.8843 16.7991C34.8273 17.0211 34.8555 17.2564 34.9631 17.4588C35.0708 17.6611 35.2502 17.8159 35.4662 17.8928L40.8132 19.3911C41.2956 19.5386 41.7948 19.6239 42.2988 19.6449L43.9812 19.5333L42.3928 10.9588C38.7282 13.3649 38.4766 13.4765 35.184 16.2785C35.0292 16.4141 34.9238 16.5972 34.8843 16.7991Z" fill="#263238"/>
<path d="M69.7064 3.25266L66.3438 17.8928L70.7369 17.5756L72.7475 3.39046C71.7192 3.32921 70.7055 3.28328 69.7064 3.25266Z" fill="#263238"/>
<path d="M83.6445 14.8392L89.8142 7.13308C89.9961 6.92229 90.1077 6.66002 90.1336 6.38281C90.2014 5.69379 89.7682 5.07039 89.1644 4.9982C87.8998 4.8254 86.5543 4.66135 85.2088 4.49948" fill="#263238"/>
<path d="M39.7451 18.2887C39.491 18.2919 39.2388 18.2449 39.003 18.1505C38.7671 18.0561 38.5521 17.9161 38.3705 17.7385C38.1888 17.5609 38.0439 17.3492 37.9442 17.1156C37.8444 16.882 37.7918 16.6309 37.7892 16.3769C37.7842 15.9362 37.9297 15.5069 38.2018 15.16C38.4739 14.8132 38.8563 14.5696 39.2857 14.4695L41.8629 13.8658L42.5192 18.1837L39.7976 18.2865L39.7451 18.2887Z" fill="#FF5E5E"/>
<path opacity="0.3" d="M41.7617 18.2121L42.5165 18.1837L41.8623 13.8658L41.125 14.0408L41.7617 18.2121Z" fill="black"/>
<path opacity="0.6" d="M67.2961 36.7261H67.2851C67.2781 36.7245 67.2714 36.7216 67.2655 36.7175C67.2596 36.7133 67.2545 36.708 67.2507 36.7019C67.2468 36.6958 67.2442 36.689 67.243 36.6819C67.2418 36.6748 67.242 36.6675 67.2436 36.6605C67.272 36.527 70.0877 23.3175 70.4487 21.5107C70.5865 20.8217 70.6369 19.4983 70.5953 17.5734C70.5953 17.5589 70.6011 17.545 70.6113 17.5348C70.6216 17.5245 70.6355 17.5187 70.65 17.5187C70.6641 17.5187 70.6777 17.5242 70.6879 17.534C70.6981 17.5438 70.7041 17.5571 70.7047 17.5712C70.7463 19.4983 70.7047 20.8282 70.5559 21.526C70.1949 23.3284 67.3792 36.5445 67.3508 36.678C67.3487 36.6911 67.3421 36.7031 67.3321 36.7119C67.3221 36.7207 67.3094 36.7257 67.2961 36.7261Z" fill="black"/>
<path opacity="0.6" d="M41.9173 38.7079C41.9083 38.7078 41.8994 38.7056 41.8914 38.7014C41.8834 38.6972 41.8766 38.6912 41.8714 38.6838C41.8364 38.6291 38.2024 33.2525 36.9532 31.0039C35.6689 28.6897 34.8397 17.5975 34.8047 17.125C34.8041 17.1109 34.809 17.097 34.8184 17.0864C34.8278 17.0758 34.8409 17.0693 34.8551 17.0681C34.8623 17.0672 34.8697 17.0678 34.8767 17.0699C34.8837 17.072 34.8901 17.0755 34.8957 17.0802C34.9013 17.085 34.9058 17.0908 34.9089 17.0974C34.9121 17.104 34.9139 17.1111 34.9141 17.1184C34.9141 17.2322 35.7761 28.6569 37.0494 30.9514C38.2943 33.1957 41.9261 38.5701 41.9633 38.6226C41.971 38.6349 41.9737 38.6496 41.9708 38.6639C41.968 38.6781 41.9598 38.6907 41.9479 38.6991C41.9389 38.7053 41.9282 38.7083 41.9173 38.7079Z" fill="black"/>
<path opacity="0.6" d="M6.3313 22.3725C6.32062 22.3726 6.31017 22.3695 6.30123 22.3636C6.29229 22.3578 6.28525 22.3495 6.28098 22.3397C6.27584 22.326 6.27616 22.3109 6.28186 22.2975C6.28756 22.2841 6.29821 22.2733 6.31161 22.2675C9.09888 21.1279 18.0317 18.9865 20.1276 18.643C22.7683 18.2209 31.7909 15.9941 31.8806 15.9723C31.8951 15.9689 31.9103 15.9714 31.9229 15.9792C31.9356 15.987 31.9447 15.9994 31.9484 16.0138C31.95 16.0209 31.9502 16.0281 31.949 16.0353C31.9478 16.0424 31.9451 16.0492 31.9413 16.0553C31.9374 16.0614 31.9324 16.0667 31.9265 16.0708C31.9205 16.075 31.9139 16.0779 31.9068 16.0794C31.8171 16.1013 22.7902 18.3281 20.1451 18.7524C18.1105 19.0783 9.07044 21.257 6.36193 22.3703L6.3313 22.3725Z" fill="black"/>
<path opacity="0.8" d="M96.3355 6.55341C96.2362 6.64147 96.1553 6.74826 96.0973 6.86767C96.0393 6.98707 96.0055 7.11674 95.9978 7.24924C95.9901 7.38174 96.0086 7.51446 96.0523 7.63979C96.096 7.76512 96.164 7.88059 96.2524 7.97958L97.3704 9.19576C97.499 9.33235 97.6623 9.4314 97.8429 9.48231L111.545 13.2818C111.784 13.3451 112.029 13.3782 112.276 13.3802H114.998C114.857 13.2843 114.711 13.1966 114.56 13.1177L101.35 6.15969C101.271 6.12058 101.2 6.06622 101.142 5.99972C101.084 5.93323 101.039 5.85591 101.011 5.77219C100.983 5.68847 100.971 5.6 100.977 5.51185C100.983 5.4237 101.007 5.3376 101.046 5.25848L96.7556 6.33249C96.6002 6.37214 96.4563 6.44783 96.3355 6.55341Z" fill="white"/>
<path d="M44.8687 15.3095C44.744 15.3838 43.2891 16.8866 43.2891 16.8866L43.5735 18.7502L45.4025 16.8625L44.8687 15.3095Z" fill="#263238"/>
<path d="M47.0612 19.1964C46.9058 19.2724 46.7268 19.284 46.5629 19.2287C46.399 19.1734 46.2636 19.0557 46.1861 18.9011L43.2894 13.0149C43.2134 12.8596 43.2018 12.6805 43.2571 12.5167C43.3124 12.3529 43.4302 12.2175 43.5848 12.14C43.7401 12.064 43.9192 12.0524 44.0831 12.1077C44.247 12.163 44.3824 12.2807 44.4599 12.4353L47.3631 18.3149C47.4016 18.3926 47.4242 18.477 47.4298 18.5635C47.4354 18.6499 47.4239 18.7366 47.3958 18.8186C47.3677 18.9005 47.3237 18.9761 47.2663 19.0409C47.2089 19.1058 47.1392 19.1587 47.0612 19.1964Z" fill="#263238"/>
</svg>
